<?xml version="1.0" encoding="UTF-8"?>
<svg version="1.1" xmlns="http://www.w3.org/2000/svg" width="500" height="500">
<path d="M0 0 C1.50519497 0.0150714 3.01040451 0.02875547 4.515625 0.04101562 C8.17774156 0.07126439 11.83780858 0.13001211 15.5 0.1875 C15.5 8.4375 15.5 16.6875 15.5 25.1875 C18.47 25.1875 21.44 25.1875 24.5 25.1875 C24.67015625 24.10082031 24.67015625 24.10082031 24.84375 22.9921875 C26.67775052 15.15401861 31.70069729 9.43153783 37.9609375 4.66015625 C46.47550424 -0.27829246 53.8034435 -0.18519378 63.5 0 C64.86066226 0.01507524 66.22134069 0.02875862 67.58203125 0.04101562 C70.88819432 0.07618757 74.19415007 0.12998844 77.5 0.1875 C77.5 8.4375 77.5 16.6875 77.5 25.1875 C79.48 25.1875 81.46 25.1875 83.5 25.1875 C83.41293747 22.26940419 83.30605266 19.35434289 83.1875 16.4375 C83.16494141 15.6125 83.14238281 14.7875 83.11914062 13.9375 C82.91813799 9.40580414 82.73754715 6.62468143 79.5 3.1875 C79.5 2.5275 79.5 1.8675 79.5 1.1875 C89.4 1.1875 99.3 1.1875 109.5 1.1875 C108.5 3.1875 107.5 5.1875 106.5 7.1875 C106.34995027 8.5609635 106.25161994 9.9403526 106.18359375 11.3203125 C106.14169922 12.12597656 106.09980469 12.93164062 106.05664062 13.76171875 C106.01732422 14.60347656 105.97800781 15.44523438 105.9375 16.3125 C105.87272461 17.58673828 105.87272461 17.58673828 105.80664062 18.88671875 C105.70045764 20.98678223 105.59971503 23.08711948 105.5 25.1875 C108.8 25.1875 112.1 25.1875 115.5 25.1875 C115.24594371 21.89373496 114.97260846 18.60359453 114.6875 15.3125 C114.61724609 14.37535156 114.54699219 13.43820313 114.47460938 12.47265625 C114.39404297 11.57675781 114.31347656 10.68085938 114.23046875 9.7578125 C114.12835083 8.51668701 114.12835083 8.51668701 114.02416992 7.25048828 C113.64719239 4.80186414 113.64719239 4.80186414 110.5 3.1875 C110.5 2.5275 110.5 1.8675 110.5 1.1875 C120.25365058 1.09455741 130.00719469 1.02361237 139.761199 0.98025131 C144.29107312 0.95943337 148.82064283 0.93122253 153.3503418 0.88574219 C157.72701546 0.84207649 162.1033975 0.81831938 166.48027229 0.80799103 C168.1447413 0.80063666 169.8091955 0.78627565 171.47353935 0.76457977 C190.15853288 0.53083635 190.15853288 0.53083635 197.9375 7.3125 C200.586601 12.18684584 201.99826998 17.140935 201.08984375 22.6953125 C199.72544251 27.21349366 198.20262589 30.12993089 194.5 33.1875 C191.703125 34.234375 191.703125 34.234375 188.75 34.9375 C187.76515625 35.17984375 186.7803125 35.4221875 185.765625 35.671875 C185.01796875 35.84203125 184.2703125 36.0121875 183.5 36.1875 C184.00789063 36.48140625 184.51578125 36.7753125 185.0390625 37.078125 C194.93376804 43.52636007 197.81413721 54.04524577 200.4453125 65.05859375 C201.79511687 69.06301338 203.63401829 72.25450915 207.5 74.1875 C209.82333023 65.84560196 211.95704214 57.46360512 214.0390625 49.05859375 C214.368508 47.73384831 214.69813174 46.40914718 215.02792358 45.08448792 C216.4146793 39.51324659 217.79862626 33.94130997 219.18066406 28.36889648 C220.0315265 24.93871874 220.88466059 21.50911257 221.73920822 18.07985115 C222.22012445 16.14696935 222.69841333 14.21343447 223.17666626 12.27989197 C223.61249527 10.5315078 223.61249527 10.5315078 224.05712891 8.74780273 C224.31233307 7.71952866 224.56753723 6.69125458 224.83047485 5.63182068 C225.5 3.1875 225.5 3.1875 226.5 1.1875 C234.09 1.1875 241.68 1.1875 249.5 1.1875 C252.29030083 11.04074982 254.96591947 20.90194594 257.4375 30.83984375 C257.68765869 31.8411734 257.93781738 32.84250305 258.19555664 33.87417603 C259.22656866 38.0032805 260.25653359 42.13254268 261.27050781 46.26586914 C262.02483327 49.33468938 262.79259377 52.39990057 263.5625 55.46484375 C263.89399048 56.83708351 263.89399048 56.83708351 264.23217773 58.23704529 C265.99233642 65.17630611 268.43075554 70.4351622 271.5 77.1875 C260.28 77.1875 249.06 77.1875 237.5 77.1875 C238.16 75.8675 238.82 74.5475 239.5 73.1875 C240.7808733 66.73858141 240.43837812 60.65188259 239.5 54.1875 C233.89 54.1875 228.28 54.1875 222.5 54.1875 C224.12790354 62.8696522 225.69751619 68.568499 231.5 75.1875 C231.83 75.8475 232.16 76.5075 232.5 77.1875 C231.64245117 77.21255615 230.78490234 77.2376123 229.90136719 77.26342773 C226.7106563 77.35873412 223.52009781 77.45795751 220.32958984 77.55981445 C218.95040622 77.6030455 217.57117315 77.64472866 216.19189453 77.68481445 C214.20593062 77.74280403 212.22014731 77.80687723 210.234375 77.87109375 C209.04038086 77.90775146 207.84638672 77.94440918 206.61621094 77.98217773 C204.05287842 78.15107171 201.95385884 78.5151056 199.5 79.1875 C192.97240266 79.63004897 186.11349562 79.23967591 180.890625 74.828125 C175.0699393 68.18569544 174.96484788 61.04701604 174.37695312 52.66796875 C173.92391489 47.23967276 173.07114789 43.02048475 170.5 38.1875 C169.84 37.8575 169.18 37.5275 168.5 37.1875 C168.56890702 42.24169674 168.6568874 47.29506854 168.76245117 52.34863281 C168.79567681 54.06728965 168.82371616 55.78605499 168.84643555 57.50488281 C168.88002561 59.97768323 168.93234178 62.44949156 168.98828125 64.921875 C168.99786613 66.07209137 168.99786613 66.07209137 169.00764465 67.24554443 C169.13729638 71.96445822 169.52657212 73.22292949 172.5 77.1875 C162.27 77.1875 152.04 77.1875 141.5 77.1875 C142.49 75.8675 143.48 74.5475 144.5 73.1875 C145.00377284 69.99805812 145.00377284 69.99805812 145.01171875 66.453125 C145.04716797 65.15761719 145.08261719 63.86210937 145.11914062 62.52734375 C145.14223867 61.16406774 145.16502114 59.80078636 145.1875 58.4375 C145.22068648 57.05856138 145.25517738 55.6796535 145.29101562 54.30078125 C145.37352291 50.92976941 145.44266771 47.55901872 145.5 44.1875 C142.86 44.1875 140.22 44.1875 137.5 44.1875 C137.52320313 44.93773437 137.54640625 45.68796875 137.5703125 46.4609375 C137.73992149 56.08019026 137.70390116 64.77973388 131.34375 72.49609375 C124.93058006 78.37936194 116.47667338 79.45169652 108.125 79.33984375 C101.24577958 78.94060328 95.9904866 77.52881499 90.5 73.1875 C89.778125 72.630625 89.05625 72.07375 88.3125 71.5 C81.9189334 63.34269089 83.5 54.53686297 83.5 44.1875 C70.96 44.1875 58.42 44.1875 45.5 44.1875 C46.69974782 61.30966454 46.69974782 61.30966454 55.5 75.1875 C58.45691709 75.93765195 58.45691709 75.93765195 61.5 75.1875 C69.78706321 69.12379521 72.62048701 57.54993888 75.5 48.1875 C76.16 48.1875 76.82 48.1875 77.5 48.1875 C77.5 56.7675 77.5 65.3475 77.5 74.1875 C65.8121822 78.86262712 56.04169993 81.3049354 43.8828125 77.2265625 C35.42967647 73.54044089 28.82065238 66.72474531 25.1875 58.3125 C23.44295842 53.59282734 22.82313961 49.19616391 22.5 44.1875 C20.85 44.5175 19.2 44.8475 17.5 45.1875 C17.850625 46.321875 18.20125 47.45625 18.5625 48.625 C20.26576279 55.57284173 19.32688272 62.07582392 15.84765625 68.3359375 C11.1310959 74.81608129 4.19007013 77.75985827 -3.5 79.1875 C-14.02461466 80.32092004 -23.45205724 77.43347893 -32.5 72.1875 C-33.5 71.1875 -33.5 71.1875 -33.61352539 68.68725586 C-33.60567017 67.06122437 -33.60567017 67.06122437 -33.59765625 65.40234375 C-33.59282227 63.64760742 -33.59282227 63.64760742 -33.58789062 61.85742188 C-33.57532227 60.00987305 -33.57532227 60.00987305 -33.5625 58.125 C-33.55798828 56.88943359 -33.55347656 55.65386719 -33.54882812 54.38085938 C-33.53699608 51.31635883 -33.52051173 48.25195279 -33.5 45.1875 C-32.84 45.1875 -32.18 45.1875 -31.5 45.1875 C-31.22027344 45.99832031 -30.94054687 46.80914062 -30.65234375 47.64453125 C-27.01107935 57.70191426 -22.8068115 68.03112714 -13.62109375 74.2265625 C-10.00235126 75.8659928 -6.35283805 76.16780791 -2.5 75.1875 C-0.22675064 73.56960181 0.40725792 72.67293377 0.93359375 69.91796875 C0.94249233 64.12499318 0.55426141 60.63729911 -3.5 56.1875 C-6.37707842 53.66033652 -9.33516749 51.34332681 -12.5 49.1875 C-13.53640625 48.47335937 -14.5728125 47.75921875 -15.640625 47.0234375 C-20.19846632 44.4669146 -24.81529102 44.5186293 -29.9375 44.4375 C-30.85982422 44.40785156 -31.78214844 44.37820313 -32.73242188 44.34765625 C-34.98836601 44.27752327 -37.24331119 44.2245525 -39.5 44.1875 C-39.17902344 44.87199219 -38.85804688 45.55648437 -38.52734375 46.26171875 C-36.41757354 52.27015177 -36.22062216 59.73529451 -38.4453125 65.73828125 C-42.08736496 71.81982168 -46.61311021 75.4053369 -53.5 77.1875 C-57.12471138 77.4533655 -60.73444017 77.42042086 -64.3671875 77.3828125 C-65.40191193 77.3799826 -66.43663635 77.37715271 -67.50271606 77.37423706 C-70.79359714 77.36308048 -74.08420178 77.33798397 -77.375 77.3125 C-79.61197522 77.30246437 -81.84895473 77.29333953 -84.0859375 77.28515625 C-89.5573853 77.26315595 -95.02867289 77.22972338 -100.5 77.1875 C-100.5 76.5275 -100.5 75.8675 -100.5 75.1875 C-99.51 74.6925 -99.51 74.6925 -98.5 74.1875 C-97.4088292 70.9139876 -97.35991036 68.48165427 -97.33886719 65.03540039 C-97.32925964 63.76720963 -97.3196521 62.49901886 -97.30975342 61.19239807 C-97.30490602 59.80665263 -97.30062705 58.42090509 -97.296875 57.03515625 C-97.29112168 55.61413064 -97.28536397 54.19310504 -97.27960205 52.77207947 C-97.26910223 49.79376871 -97.26325261 46.81548486 -97.25976562 43.8371582 C-97.25427677 40.02270961 -97.23023653 36.20861722 -97.20179367 32.39428043 C-97.18316359 29.459457 -97.17796155 26.52471942 -97.17642975 23.58984184 C-97.17340453 22.18362921 -97.16538034 20.77741804 -97.15224457 19.3712635 C-97.13517507 17.4039123 -97.13891045 15.43641391 -97.14355469 13.46899414 C-97.13808624 11.79046104 -97.13808624 11.79046104 -97.13250732 10.07801819 C-97.54201014 6.85706871 -98.43076769 5.61336314 -100.5 3.1875 C-100.5 2.5275 -100.5 1.8675 -100.5 1.1875 C-94.27446052 1.08801381 -88.04939218 1.01574069 -81.82324219 0.96777344 C-79.70890228 0.94775984 -77.59461701 0.92054028 -75.48046875 0.88574219 C-72.42694552 0.83677059 -69.37415922 0.81442818 -66.3203125 0.796875 C-65.38760529 0.77622986 -64.45489807 0.75558472 -63.493927 0.73431396 C-56.86485982 0.73208907 -51.36509008 2.01879406 -45.5 5.1875 C-42.18840211 8.49909789 -40.57428472 11.13427032 -40.40234375 15.88671875 C-40.41394531 16.87285156 -40.42554688 17.85898438 -40.4375 18.875 C-40.44652344 19.86886719 -40.45554688 20.86273438 -40.46484375 21.88671875 C-40.47644531 22.64597656 -40.48804688 23.40523437 -40.5 24.1875 C-38.52 24.5175 -36.54 24.8475 -34.5 25.1875 C-34.561875 24.218125 -34.62375 23.24875 -34.6875 22.25 C-34.64364389 16.83377054 -33.51412773 11.64388329 -30.0234375 7.38671875 C-21.18416561 -0.74621863 -11.25864121 -0.19645785 0 0 Z M-16.5 6.1875 C-17.92488218 10.54596313 -17.7185563 13.31328478 -15.8125 17.375 C-14.14701628 20.53234558 -12.2335785 22.87961124 -9.5 25.1875 C-6.89977877 25.73424799 -6.89977877 25.73424799 -4.078125 25.578125 C-3.05332031 25.56523437 -2.02851563 25.55234375 -0.97265625 25.5390625 C0.09082031 25.50554687 1.15429688 25.47203125 2.25 25.4375 C3.32894531 25.41945312 4.40789062 25.40140625 5.51953125 25.3828125 C8.18058788 25.33571415 10.83984254 25.269956 13.5 25.1875 C10.30470269 14.90715796 6.60169685 8.58438313 -3.10546875 3.2578125 C-8.74111746 0.73877866 -12.39433535 1.61261653 -16.5 6.1875 Z M51.85546875 5.265625 C47.65091356 11.22712688 46.5 18.06142427 46.5 25.1875 C56.07 25.1875 65.64 25.1875 75.5 25.1875 C74.38888028 16.29854225 72.17750633 11.0535964 66.0625 4.625 C60.88010386 1.71780216 56.45105229 0.87949165 51.85546875 5.265625 Z M-74.5 3.1875 C-74.5 13.4175 -74.5 23.6475 -74.5 34.1875 C-68.93155174 33.64389275 -68.93155174 33.64389275 -66.25 31.8125 C-62.51100903 26.20401355 -62.03741799 19.37377328 -63 12.8125 C-63.82704295 9.43988328 -64.78937152 7.39875315 -67.375 5.0625 C-70.46427113 2.84450283 -70.46427113 2.84450283 -74.5 3.1875 Z M139.5 3.1875 C137.39790143 6.34064785 137.2565239 7.04853081 137.3046875 10.63671875 C137.31113281 11.48427734 137.31757813 12.33183594 137.32421875 13.20507812 C137.34097656 14.08615234 137.35773438 14.96722656 137.375 15.875 C137.38402344 16.76767578 137.39304687 17.66035156 137.40234375 18.58007812 C137.42590252 20.78282314 137.45879671 22.98502588 137.5 25.1875 C140.14 25.1875 142.78 25.1875 145.5 25.1875 C145.55790353 21.89590684 145.59356261 18.60444397 145.625 15.3125 C145.64175781 14.37535156 145.65851563 13.43820313 145.67578125 12.47265625 C145.68544922 11.12880859 145.68544922 11.12880859 145.6953125 9.7578125 C145.70578613 8.93039551 145.71625977 8.10297852 145.72705078 7.25048828 C145.69302257 4.96351843 145.69302257 4.96351843 143.5 3.1875 C142.18 3.1875 140.86 3.1875 139.5 3.1875 Z M168.5 3.1875 C168.5 13.4175 168.5 23.6475 168.5 34.1875 C174.22411567 33.8449518 174.22411567 33.8449518 176.3125 31.3125 C178.64490289 27.1387264 178.6940366 23.58991652 178.75 18.875 C178.77578125 17.57949219 178.8015625 16.28398437 178.828125 14.94921875 C178.47773117 10.9322038 177.64349626 8.5780303 175.5 5.1875 C172.54622502 2.81769987 172.54622502 2.81769987 168.5 3.1875 Z M227.5 7.1875 C225.14255698 14.96204612 223.87842007 22.77457282 222.8125 30.8125 C222.68125732 31.77744385 222.55001465 32.7423877 222.41479492 33.73657227 C221.62698775 39.93705327 221.38046889 45.9377303 221.5 52.1875 C227.44 52.1875 233.38 52.1875 239.5 52.1875 C235.87 37.3375 232.24 22.4875 228.5 7.1875 C228.17 7.1875 227.84 7.1875 227.5 7.1875 Z M-74.5 36.1875 C-74.5 49.0575 -74.5 61.9275 -74.5 75.1875 C-68.84638927 75.69012046 -68.84638927 75.69012046 -65.8125 73.625 C-60.89881375 68.44570909 -59.48894813 62.17228068 -59.5 55.1875 C-60.33906628 46.54008346 -60.33906628 46.54008346 -64.5 39.1875 C-68.03033392 37.35929136 -70.51080638 36.1875 -74.5 36.1875 Z M105.5 44.1875 C105.4127747 48.58320794 105.35953131 52.97869271 105.3125 57.375 C105.28736328 58.62087891 105.26222656 59.86675781 105.23632812 61.15039062 C105.22666016 62.35244141 105.21699219 63.55449219 105.20703125 64.79296875 C105.1913208 65.89793701 105.17561035 67.00290527 105.15942383 68.14135742 C105.53931474 71.53913445 106.54664104 73.41855172 108.5 76.1875 C110.15 75.8575 111.8 75.5275 113.5 75.1875 C115.33738684 68.19240914 115.74911312 61.83788156 115.625 54.625 C115.61597656 53.61630859 115.60695313 52.60761719 115.59765625 51.56835938 C115.57433501 49.1079681 115.53847404 46.64770098 115.5 44.1875 C112.2 44.1875 108.9 44.1875 105.5 44.1875 Z " fill="#EEE9A6" transform="translate(196.5,223.8125)"/>
<path d="M0 0 C9.40969573 5.02781516 13.70635597 12.89047617 16.8125 22.83984375 C20.02962648 36.26687856 19.09793769 51.71926939 12.3125 63.875 C7.6270054 70.94917812 2.82772865 74.87822939 -5.46875 76.96484375 C-13.41417464 78.48604056 -19.73868068 77.06381108 -26.9375 73.4375 C-35.09693811 67.66619012 -39.24168903 58.04919295 -40.9375 48.4375 C-42.2735863 33.92656931 -41.51635856 19.56538954 -32.71875 7.37890625 C-24.35342497 -1.73856423 -11.62218494 -4.69704884 0 0 Z M-14.55195618 1.69017029 C-19.19363286 7.54385708 -18.24447361 17.07039564 -18.23828125 24.12109375 C-18.24256638 25.21664078 -18.2468515 26.31218781 -18.25126648 27.44093323 C-18.2569816 29.74617831 -18.25753096 32.05144141 -18.25317383 34.35668945 C-18.25001249 37.86115588 -18.27351433 41.36477818 -18.29882812 44.86914062 C-18.30110144 47.11979061 -18.30180447 49.37044285 -18.30078125 51.62109375 C-18.309991 52.65681015 -18.31920074 53.69252655 -18.32868958 54.7596283 C-18.2866035 61.45723405 -17.22410152 67.14041271 -14.9375 73.4375 C-13.2875 73.7675 -11.6375 74.0975 -9.9375 74.4375 C-2.66078042 65.64292944 -4.62913778 51.68394765 -4.67675781 40.89526367 C-4.68746275 38.01003945 -4.67682564 35.1254395 -4.6640625 32.24023438 C-3.67242866 15.24438664 -3.67242866 15.24438664 -9.9375 0.4375 C-12.88303983 0.13099 -12.88303983 0.13099 -14.55195618 1.69017029 Z " fill="#EFEAA7" transform="translate(75.9375,225.5625)"/>
<path d="M0 0 C1.65 0 3.3 0 5 0 C5.38218767 1.65614657 5.71395102 3.32457024 6 5 C5 6 5 6 2.4375 6.0625 C1.2309375 6.0315625 1.2309375 6.0315625 0 6 C0 4.02 0 2.04 0 0 Z " fill="#A19C73" transform="translate(291,254)"/>
<path d="M0 0 C1.98 0.99 1.98 0.99 4 2 C4.33 1.34 4.66 0.68 5 0 C5.66 0 6.32 0 7 0 C7 1.98 7 3.96 7 6 C4.66666667 6 2.33333333 6 0 6 C0 4.02 0 2.04 0 0 Z " fill="#827E5F" transform="translate(264,254)"/>
<path d="M0 0 C1.65 0 3.3 0 5 0 C5 1.98 5 3.96 5 6 C3.35 6 1.7 6 0 6 C0 4.02 0 2.04 0 0 Z " fill="#8B8765" transform="translate(203,254)"/>
<path d="M0 0 C0.33 0.66 0.66 1.32 1 2 C1.99 2 2.98 2 4 2 C4 1.34 4 0.68 4 0 C4.66 0 5.32 0 6 0 C6 1.98 6 3.96 6 6 C5.34 6 4.68 6 4 6 C4 5.01 4 4.02 4 3 C3.34 3 2.68 3 2 3 C2 3.99 2 4.98 2 6 C1.34 6 0.68 6 0 6 C0 4.02 0 2.04 0 0 Z " fill="#8D8966" transform="translate(251,254)"/>
<path d="M0 0 C0.66 0 1.32 0 2 0 C2.66 1.98 3.32 3.96 4 6 C3.34 6 2.68 6 2 6 C2 5.34 2 4.68 2 4 C0.02 4.99 0.02 4.99 -2 6 C-1.34 4.02 -0.68 2.04 0 0 Z " fill="#7D795C" transform="translate(240,254)"/>
<path d="M0 0 C0.66 0 1.32 0 2 0 C2.66 1.98 3.32 3.96 4 6 C2.68 5.34 1.36 4.68 0 4 C0 4.66 0 5.32 0 6 C-0.66 5.67 -1.32 5.34 -2 5 C-1.34 3.35 -0.68 1.7 0 0 Z " fill="#7A7559" transform="translate(280,254)"/>
</svg>
