<?xml version="1.0" encoding="UTF-8"?>
<!DOCTYPE svg PUBLIC "-//W3C//DTD SVG 1.1//EN" "http://www.w3.org/Graphics/SVG/1.1/DTD/svg11.dtd">
<svg xmlns="http://www.w3.org/2000/svg" version="1.1" width="1280px" height="1268px" style="shape-rendering:geometricPrecision; text-rendering:geometricPrecision; image-rendering:optimizeQuality; fill-rule:evenodd; clip-rule:evenodd" xmlns:xlink="http://www.w3.org/1999/xlink">
<g><path style="opacity:1" fill="#000000" d="M -0.5,-0.5 C 426.167,-0.5 852.833,-0.5 1279.5,-0.5C 1279.5,422.167 1279.5,844.833 1279.5,1267.5C 852.833,1267.5 426.167,1267.5 -0.5,1267.5C -0.5,844.833 -0.5,422.167 -0.5,-0.5 Z"/></g>
<g><path style="opacity:1" fill="#fcf8d0" d="M 487.5,563.5 C 489.167,563.5 490.833,563.5 492.5,563.5C 492.168,575.518 492.501,587.518 493.5,599.5C 494.107,599.376 494.44,599.043 494.5,598.5C 507.278,591.775 518.778,593.441 529,603.5C 531.658,607.148 533.491,611.148 534.5,615.5C 535.143,623.15 535.477,630.817 535.5,638.5C 533.017,654.105 524.35,664.772 509.5,670.5C 504.839,670.832 500.172,671.165 495.5,671.5C 486.939,669.919 478.272,668.919 469.5,668.5C 469.167,668.5 468.833,668.5 468.5,668.5C 468.5,634.833 468.5,601.167 468.5,567.5C 472.011,567.101 475.344,566.434 478.5,565.5C 481.546,564.938 484.546,564.271 487.5,563.5 Z"/></g>
<g><path style="opacity:1" fill="#66644f" d="M 487.5,563.5 C 489.265,562.539 491.265,562.205 493.5,562.5C 493.172,574.678 493.505,586.678 494.5,598.5C 494.44,599.043 494.107,599.376 493.5,599.5C 492.501,587.518 492.168,575.518 492.5,563.5C 490.833,563.5 489.167,563.5 487.5,563.5 Z"/></g>
<g><path style="opacity:1" fill="#faf5ce" d="M 428.5,577.5 C 430.509,579.065 432.843,580.065 435.5,580.5C 442.774,583.441 448.107,588.441 451.5,595.5C 451.427,597.027 452.094,598.027 453.5,598.5C 458.63,614.691 458.797,631.024 454,647.5C 449.344,660.997 440.178,669.331 426.5,672.5C 418.713,672.868 411.046,672.202 403.5,670.5C 399.739,669.453 396.406,667.619 393.5,665C 380.957,649.994 376.623,632.828 380.5,613.5C 382.744,608.767 384.411,603.767 385.5,598.5C 394.361,580.674 408.695,573.674 428.5,577.5 Z"/></g>
<g><path style="opacity:1" fill="#75725f" d="M 428.5,577.5 C 431.346,577.552 433.68,578.552 435.5,580.5C 432.843,580.065 430.509,579.065 428.5,577.5 Z"/></g>
<g><path style="opacity:1" fill="#a4a084" d="M 420.5,591.5 C 418.097,591.448 415.764,591.781 413.5,592.5C 414.312,591.007 415.645,590.34 417.5,590.5C 418.726,590.52 419.726,590.853 420.5,591.5 Z"/></g>
<g><path style="opacity:1" fill="#c4c1a4" d="M 420.5,591.5 C 423.368,592.017 426.034,592.35 428.5,592.5C 427.975,593.192 427.308,593.692 426.5,594C 428.683,598.31 430.017,602.81 430.5,607.5C 430.167,607.5 429.833,607.5 429.5,607.5C 428.651,603.449 427.485,599.449 426,595.5C 424.5,593.531 422.667,592.198 420.5,591.5 Z"/></g>
<g><path style="opacity:1" fill="#050503" d="M 420.5,591.5 C 422.667,592.198 424.5,593.531 426,595.5C 427.485,599.449 428.651,603.449 429.5,607.5C 431.037,621.219 430.704,634.886 428.5,648.5C 427.069,656.442 422.402,659.942 414.5,659C 408.41,652.449 405.743,644.616 406.5,635.5C 406.39,624.815 406.723,614.148 407.5,603.5C 407.693,598.776 409.693,595.109 413.5,592.5C 415.764,591.781 418.097,591.448 420.5,591.5 Z"/></g>
<g><path style="opacity:1" fill="#575544" d="M 580.5,595.5 C 573.798,595.336 567.131,595.669 560.5,596.5C 564.034,594.952 567.867,594.286 572,594.5C 575.021,594.502 577.854,594.836 580.5,595.5 Z"/></g>
<g><path style="opacity:1" fill="#404033" d="M 581.5,595.5 C 584.187,595.336 586.854,595.503 589.5,596C 590.056,596.383 590.389,596.883 590.5,597.5C 587.273,597.324 584.273,596.657 581.5,595.5 Z"/></g>
<g><path style="opacity:1" fill="#fcf7d0" d="M 700.5,653.5 C 703.625,654.479 706.958,654.813 710.5,654.5C 710.5,635.5 710.5,616.5 710.5,597.5C 718.475,596.313 726.475,595.313 734.5,594.5C 734.5,619.833 734.5,645.167 734.5,670.5C 726.5,670.5 718.5,670.5 710.5,670.5C 710.5,669.167 710.5,667.833 710.5,666.5C 709.209,666.263 708.209,666.596 707.5,667.5C 705.703,668.73 703.703,669.396 701.5,669.5C 695.156,670.688 688.822,670.688 682.5,669.5C 676.534,666.237 673.034,661.237 672,654.5C 671.5,635.503 671.333,616.503 671.5,597.5C 679.822,596.391 688.155,595.391 696.5,594.5C 696.333,613.17 696.5,631.836 697,650.5C 697.422,652.426 698.589,653.426 700.5,653.5 Z"/></g>
<g><path style="opacity:1" fill="#a8a384" d="M 734.5,594.5 C 735.498,619.995 735.831,645.661 735.5,671.5C 726.833,671.5 718.167,671.5 709.5,671.5C 709.843,669.517 709.176,668.183 707.5,667.5C 708.209,666.596 709.209,666.263 710.5,666.5C 710.5,667.833 710.5,669.167 710.5,670.5C 718.5,670.5 726.5,670.5 734.5,670.5C 734.5,645.167 734.5,619.833 734.5,594.5 Z"/></g>
<g><path style="opacity:1" fill="#a7a48f" d="M 771.5,594.5 C 772.167,596.5 772.833,598.5 773.5,600.5C 773.44,601.043 773.107,601.376 772.5,601.5C 771.526,599.257 771.192,596.924 771.5,594.5 Z"/></g>
<g><path style="opacity:1" fill="#faf5ce" d="M 580.5,595.5 C 580.833,595.5 581.167,595.5 581.5,595.5C 584.273,596.657 587.273,597.324 590.5,597.5C 592.435,598.15 594.435,598.483 596.5,598.5C 596.666,602.514 596.499,606.514 596,610.5C 594.644,609.62 593.144,609.286 591.5,609.5C 588.37,609.3 585.37,608.634 582.5,607.5C 580.883,606.028 578.883,605.361 576.5,605.5C 575.167,605.667 573.833,605.833 572.5,606C 571.944,606.383 571.611,606.883 571.5,607.5C 568.9,610.349 568.9,613.349 571.5,616.5C 579.49,621.837 587.157,627.504 594.5,633.5C 594.427,635.027 595.094,636.027 596.5,636.5C 598.085,641.678 598.752,647.012 598.5,652.5C 596.782,661.287 591.782,667.287 583.5,670.5C 579.489,670.644 575.489,670.977 571.5,671.5C 563.167,669.998 554.834,668.665 546.5,667.5C 545.903,662.706 546.57,658.373 548.5,654.5C 550.509,656.065 552.843,657.065 555.5,657.5C 560.003,659.871 564.669,660.538 569.5,659.5C 575.356,659.146 577.523,656.146 576,650.5C 566.763,644.599 558.096,637.932 550,630.5C 548.519,627.89 547.352,625.223 546.5,622.5C 546.437,617.797 546.771,613.13 547.5,608.5C 548.906,608.027 549.573,607.027 549.5,605.5C 551.76,600.859 555.427,597.859 560.5,596.5C 567.131,595.669 573.798,595.336 580.5,595.5 Z"/></g>
<g><path style="opacity:1" fill="#f8f4cd" d="M 661.5,597.5 C 662.436,601.735 662.769,606.069 662.5,610.5C 661.5,610.5 660.5,610.5 659.5,610.5C 657.05,610.702 654.717,610.369 652.5,609.5C 650.365,607.631 647.698,606.964 644.5,607.5C 640.84,607.159 637.507,607.825 634.5,609.5C 631.73,611.366 630.23,614.032 630,617.5C 629.181,623.681 629.347,629.681 630.5,635.5C 632.094,652.088 641.094,658.754 657.5,655.5C 658.833,655.5 660.167,655.5 661.5,655.5C 661.263,656.791 661.596,657.791 662.5,658.5C 663.403,661.391 663.736,664.391 663.5,667.5C 656.69,668.369 650.023,669.869 643.5,672C 637.984,672.817 632.65,672.651 627.5,671.5C 625.898,669.926 623.898,669.259 621.5,669.5C 614.514,666.193 609.847,660.859 607.5,653.5C 607.573,651.973 606.906,650.973 605.5,650.5C 605.5,649.833 605.5,649.167 605.5,648.5C 604.65,641.201 604.317,633.868 604.5,626.5C 606.31,623.855 607.31,620.855 607.5,617.5C 613.338,602.415 624.338,595.082 640.5,595.5C 647.56,595.646 654.56,596.313 661.5,597.5 Z"/></g>
<g><path style="opacity:1" fill="#fdf8d1" d="M 771.5,594.5 C 771.192,596.924 771.526,599.257 772.5,601.5C 773.107,601.376 773.44,601.043 773.5,600.5C 775.253,598.777 777.253,597.277 779.5,596C 784.552,595.274 789.552,595.441 794.5,596.5C 794.666,604.174 794.5,611.841 794,619.5C 790.951,618.39 787.784,617.723 784.5,617.5C 784.167,617.5 783.833,617.5 783.5,617.5C 780.079,614.804 776.079,613.47 771.5,613.5C 771.5,632.5 771.5,651.5 771.5,670.5C 763.5,670.5 755.5,670.5 747.5,670.5C 747.5,646.167 747.5,621.833 747.5,597.5C 755.475,596.313 763.475,595.313 771.5,594.5 Z"/></g>
<g><path style="opacity:1" fill="#fbf6cf" d="M 855.5,605.5 C 856.456,627.14 856.789,648.807 856.5,670.5C 848.833,670.5 841.167,670.5 833.5,670.5C 833.5,669.5 833.5,668.5 833.5,667.5C 829.638,668.428 825.971,669.928 822.5,672C 810.837,674.087 803.003,669.587 799,658.5C 793.739,641.02 799.573,629.353 816.5,623.5C 822.138,622.78 827.804,622.447 833.5,622.5C 833.815,618.629 833.482,614.962 832.5,611.5C 832.423,610.25 831.756,609.417 830.5,609C 828.091,608.065 825.591,607.565 823,607.5C 816.949,608.462 811.115,610.129 805.5,612.5C 804.223,611.306 803.556,609.64 803.5,607.5C 803.667,605.833 803.833,604.167 804,602.5C 806.294,601.578 808.461,600.578 810.5,599.5C 820.89,595.937 831.556,594.77 842.5,596C 848.348,597.243 852.682,600.409 855.5,605.5 Z"/></g>
<g><path style="opacity:1" fill="#71705c" d="M 451.5,595.5 C 452.906,595.973 453.573,596.973 453.5,598.5C 452.094,598.027 451.427,597.027 451.5,595.5 Z"/></g>
<g><path style="opacity:1" fill="#a6a28a" d="M 385.5,598.5 C 384.411,603.767 382.744,608.767 380.5,613.5C 381.194,608.085 382.86,603.085 385.5,598.5 Z"/></g>
<g><path style="opacity:1" fill="#a19f85" d="M 582.5,607.5 C 578.801,606.421 575.135,606.421 571.5,607.5C 571.611,606.883 571.944,606.383 572.5,606C 573.833,605.833 575.167,605.667 576.5,605.5C 578.883,605.361 580.883,606.028 582.5,607.5 Z"/></g>
<g><path style="opacity:1" fill="#bcb89d" d="M 794.5,596.5 C 795.821,604.676 795.821,613.009 794.5,621.5C 790.987,620.336 787.654,619.002 784.5,617.5C 787.784,617.723 790.951,618.39 794,619.5C 794.5,611.841 794.666,604.174 794.5,596.5 Z"/></g>
<g><path style="opacity:1" fill="#8c8972" d="M 549.5,605.5 C 549.573,607.027 548.906,608.027 547.5,608.5C 547.427,606.973 548.094,605.973 549.5,605.5 Z"/></g>
<g><path style="opacity:1" fill="#a7a58d" d="M 644.5,607.5 C 647.698,606.964 650.365,607.631 652.5,609.5C 649.572,609.435 646.905,608.768 644.5,607.5 Z"/></g>
<g><path style="opacity:1" fill="#787461" d="M 661.5,597.5 C 663.436,601.715 664.103,606.381 663.5,611.5C 661.901,611.768 660.568,611.434 659.5,610.5C 660.5,610.5 661.5,610.5 662.5,610.5C 662.769,606.069 662.436,601.735 661.5,597.5 Z"/></g>
<g><path style="opacity:1" fill="#9d9a81" d="M 596.5,598.5 C 597.485,602.634 597.818,606.968 597.5,611.5C 595.102,611.741 593.102,611.074 591.5,609.5C 593.144,609.286 594.644,609.62 596,610.5C 596.499,606.514 596.666,602.514 596.5,598.5 Z"/></g>
<g><path style="opacity:1" fill="#636150" d="M 810.5,599.5 C 808.461,600.578 806.294,601.578 804,602.5C 803.833,604.167 803.667,605.833 803.5,607.5C 803.556,609.64 804.223,611.306 805.5,612.5C 804.791,613.404 803.791,613.737 802.5,613.5C 802.334,609.486 802.501,605.486 803,601.5C 805.301,600.133 807.801,599.466 810.5,599.5 Z"/></g>
<g><path style="opacity:1" fill="#99957d" d="M 478.5,565.5 C 475.344,566.434 472.011,567.101 468.5,567.5C 468.5,601.167 468.5,634.833 468.5,668.5C 467.17,634.664 467.17,600.664 468.5,566.5C 471.758,565.583 475.091,565.249 478.5,565.5 Z"/></g>
<g><path style="opacity:1" fill="#72705d" d="M 634.5,609.5 C 631.093,617.751 629.76,626.417 630.5,635.5C 629.347,629.681 629.181,623.681 630,617.5C 630.23,614.032 631.73,611.366 634.5,609.5 Z"/></g>
<g><path style="opacity:1" fill="#6b6952" d="M 493.5,611.5 C 493.5,626.833 493.5,642.167 493.5,657.5C 494.5,657.5 495.5,657.5 496.5,657.5C 495.432,658.434 494.099,658.768 492.5,658.5C 492.17,642.658 492.504,626.991 493.5,611.5 Z"/></g>
<g><path style="opacity:1" fill="#060504" d="M 493.5,611.5 C 498.118,611.269 502.118,612.769 505.5,616C 507.654,618.456 508.987,621.289 509.5,624.5C 509.664,631.202 509.331,637.869 508.5,644.5C 507.21,651.453 503.21,655.786 496.5,657.5C 495.5,657.5 494.5,657.5 493.5,657.5C 493.5,642.167 493.5,626.833 493.5,611.5 Z"/></g>
<g><path style="opacity:1" fill="#7b7863" d="M 547.5,608.5 C 546.771,613.13 546.437,617.797 546.5,622.5C 545.839,620.866 545.506,619.033 545.5,617C 545.36,613.85 546.027,611.017 547.5,608.5 Z"/></g>
<g><path style="opacity:1" fill="#4e4c3d" d="M 832.5,611.5 C 833.482,614.962 833.815,618.629 833.5,622.5C 827.804,622.447 822.138,622.78 816.5,623.5C 821.553,621.74 826.886,621.073 832.5,621.5C 832.5,618.167 832.5,614.833 832.5,611.5 Z"/></g>
<g><path style="opacity:1" fill="#888571" d="M 607.5,617.5 C 607.31,620.855 606.31,623.855 604.5,626.5C 604.528,623.084 605.528,620.084 607.5,617.5 Z"/></g>
<g><path style="opacity:1" fill="#767461" d="M 407.5,603.5 C 406.723,614.148 406.39,624.815 406.5,635.5C 405.834,631.347 405.501,627.013 405.5,622.5C 405.32,615.928 405.986,609.595 407.5,603.5 Z"/></g>
<g><path style="opacity:1" fill="#6c6a58" d="M 534.5,615.5 C 536.025,619.728 536.692,624.228 536.5,629C 536.498,632.352 536.165,635.518 535.5,638.5C 535.477,630.817 535.143,623.15 534.5,615.5 Z"/></g>
<g><path style="opacity:1" fill="#63604c" d="M 710.5,597.5 C 710.5,616.5 710.5,635.5 710.5,654.5C 706.958,654.813 703.625,654.479 700.5,653.5C 703.5,653.5 706.5,653.5 709.5,653.5C 709.17,634.659 709.503,615.993 710.5,597.5 Z"/></g>
<g><path style="opacity:1" fill="#a9a68d" d="M 509.5,624.5 C 510.653,630.319 510.819,636.319 510,642.5C 509.722,643.416 509.222,644.082 508.5,644.5C 509.331,637.869 509.664,631.202 509.5,624.5 Z"/></g>
<g><path style="opacity:1" fill="#918c77" d="M 594.5,633.5 C 595.906,633.973 596.573,634.973 596.5,636.5C 595.094,636.027 594.427,635.027 594.5,633.5 Z"/></g>
<g><path style="opacity:1" fill="#0a0a08" d="M 828.5,635.5 C 829.833,635.5 831.167,635.5 832.5,635.5C 832.5,642.167 832.5,648.833 832.5,655.5C 830.5,655.5 828.5,655.5 826.5,655.5C 824.376,654.969 822.876,653.635 822,651.5C 821.113,646.928 821.78,642.595 824,638.5C 825.129,636.859 826.629,635.859 828.5,635.5 Z"/></g>
<g><path style="opacity:1" fill="#a29f89" d="M 429.5,607.5 C 429.833,607.5 430.167,607.5 430.5,607.5C 431.911,620.839 431.745,634.172 430,647.5C 429.617,648.056 429.117,648.389 428.5,648.5C 430.704,634.886 431.037,621.219 429.5,607.5 Z"/></g>
<g><path style="opacity:1" fill="#b8b497" d="M 855.5,605.5 C 856.268,606.263 856.768,607.263 857,608.5C 857.5,629.497 857.667,650.497 857.5,671.5C 849.316,671.826 841.316,671.492 833.5,670.5C 841.167,670.5 848.833,670.5 856.5,670.5C 856.789,648.807 856.456,627.14 855.5,605.5 Z"/></g>
<g><path style="opacity:1" fill="#696753" d="M 604.5,626.5 C 604.317,633.868 604.65,641.201 605.5,648.5C 604.732,647.737 604.232,646.737 604,645.5C 603.18,638.986 603.347,632.653 604.5,626.5 Z"/></g>
<g><path style="opacity:1" fill="#524f3e" d="M 828.5,635.5 C 829.919,634.549 831.585,634.216 833.5,634.5C 833.5,641.833 833.5,649.167 833.5,656.5C 830.941,656.802 828.607,656.468 826.5,655.5C 828.5,655.5 830.5,655.5 832.5,655.5C 832.5,648.833 832.5,642.167 832.5,635.5C 831.167,635.5 829.833,635.5 828.5,635.5 Z"/></g>
<g><path style="opacity:1" fill="#92907b" d="M 747.5,597.5 C 747.5,621.833 747.5,646.167 747.5,670.5C 755.5,670.5 763.5,670.5 771.5,670.5C 771.5,651.5 771.5,632.5 771.5,613.5C 776.079,613.47 780.079,614.804 783.5,617.5C 779.89,616.297 776.223,615.297 772.5,614.5C 772.5,633.5 772.5,652.5 772.5,671.5C 763.833,671.5 755.167,671.5 746.5,671.5C 746.169,646.661 746.502,621.994 747.5,597.5 Z"/></g>
<g><path style="opacity:1" fill="#a7a38a" d="M 596.5,636.5 C 597.558,637.6 598.392,638.934 599,640.5C 599.812,644.689 599.645,648.689 598.5,652.5C 598.752,647.012 598.085,641.678 596.5,636.5 Z"/></g>
<g><path style="opacity:1" fill="#f7f2cc" d="M 875.5,648.5 C 880.511,648.334 885.511,648.501 890.5,649C 897.132,652.097 899.299,657.264 897,664.5C 895.923,667.913 893.756,670.413 890.5,672C 873.881,676.317 866.714,670.15 869,653.5C 870.805,651.174 872.972,649.508 875.5,648.5 Z"/></g>
<g><path style="opacity:1" fill="#858472" d="M 605.5,650.5 C 606.906,650.973 607.573,651.973 607.5,653.5C 606.094,653.027 605.427,652.027 605.5,650.5 Z"/></g>
<g><path style="opacity:1" fill="#807e6d" d="M 657.5,655.5 C 658.919,654.549 660.585,654.216 662.5,654.5C 662.5,655.833 662.5,657.167 662.5,658.5C 661.596,657.791 661.263,656.791 661.5,655.5C 660.167,655.5 658.833,655.5 657.5,655.5 Z"/></g>
<g><path style="opacity:1" fill="#494737" d="M 555.5,657.5 C 560.147,658.296 564.814,658.963 569.5,659.5C 564.669,660.538 560.003,659.871 555.5,657.5 Z"/></g>
<g><path style="opacity:1" fill="#bbb79c" d="M 548.5,654.5 C 546.57,658.373 545.903,662.706 546.5,667.5C 554.834,668.665 563.167,669.998 571.5,671.5C 575.489,670.977 579.489,670.644 583.5,670.5C 579.594,671.94 575.427,672.606 571,672.5C 562.403,671.747 553.903,670.414 545.5,668.5C 545.5,663.5 545.5,658.5 545.5,653.5C 546.791,653.263 547.791,653.596 548.5,654.5 Z"/></g>
<g><path style="opacity:1" fill="#ada98d" d="M 621.5,669.5 C 623.898,669.259 625.898,669.926 627.5,671.5C 625.102,671.741 623.102,671.074 621.5,669.5 Z"/></g>
<g><path style="opacity:1" fill="#b6b293" d="M 682.5,669.5 C 688.822,670.688 695.156,670.688 701.5,669.5C 698.644,671.006 695.477,671.672 692,671.5C 688.523,671.672 685.356,671.006 682.5,669.5 Z"/></g>
<g><path style="opacity:1" fill="#b4b199" d="M 469.5,668.5 C 478.272,668.919 486.939,669.919 495.5,671.5C 500.172,671.165 504.839,670.832 509.5,670.5C 505.272,672.025 500.772,672.692 496,672.5C 486.867,672.282 478.034,670.948 469.5,668.5 Z"/></g>
<g><path style="opacity:1" fill="#a09c85" d="M 403.5,670.5 C 411.046,672.202 418.713,672.868 426.5,672.5C 421.015,673.652 415.349,673.818 409.5,673C 407.277,672.434 405.277,671.6 403.5,670.5 Z"/></g>
</svg>
