<svg xmlns="http://www.w3.org/2000/svg" xmlns:xlink="http://www.w3.org/1999/xlink" width="1920" zoomAndPan="magnify" viewBox="0 0 1440 809.999993" height="1080" preserveAspectRatio="xMidYMid meet" version="1.0"><defs><g/><clipPath id="932ef5caeb"><path d="M 228.542969 242.4375 L 1186.773438 242.4375 L 1186.773438 566.4375 L 228.542969 566.4375 Z M 228.542969 242.4375 " clip-rule="nonzero"/></clipPath></defs><g clip-path="url(#932ef5caeb)"><path fill="#231f20" d="M 228.542969 242.4375 L 1186.773438 242.4375 L 1186.773438 566.4375 L 228.542969 566.4375 Z M 228.542969 242.4375 " fill-opacity="1" fill-rule="nonzero"/></g><g fill="#f8f8f2" fill-opacity="1"><g transform="translate(311.021348, 465.475116)"><g><path d="M 72.125 3.875 C 63.375 3.875 54.941406 2.296875 46.828125 -0.859375 C 38.722656 -4.015625 31.472656 -8.710938 25.078125 -14.953125 C 18.691406 -21.203125 13.632812 -28.992188 9.90625 -38.328125 C 6.175781 -47.660156 4.3125 -58.566406 4.3125 -71.046875 C 4.3125 -83.390625 6.175781 -94.226562 9.90625 -103.5625 C 13.632812 -112.894531 18.726562 -120.679688 25.1875 -126.921875 C 31.644531 -133.171875 38.925781 -137.910156 47.03125 -141.140625 C 55.144531 -144.367188 63.507812 -145.984375 72.125 -145.984375 C 80.882812 -145.984375 89.316406 -144.4375 97.421875 -141.34375 C 105.535156 -138.257812 112.785156 -133.59375 119.171875 -127.34375 C 125.554688 -121.101562 130.613281 -113.28125 134.34375 -103.875 C 138.082031 -94.476562 139.953125 -83.535156 139.953125 -71.046875 C 139.953125 -58.847656 138.082031 -48.046875 134.34375 -38.640625 C 130.613281 -29.242188 125.554688 -21.421875 119.171875 -15.171875 C 112.785156 -8.929688 105.535156 -4.195312 97.421875 -0.96875 C 89.316406 2.257812 80.882812 3.875 72.125 3.875 Z M 72.125 -0.640625 C 80.019531 -0.640625 86.40625 -2.753906 91.28125 -6.984375 C 96.164062 -11.222656 99.71875 -18.472656 101.9375 -28.734375 C 104.164062 -39.003906 105.28125 -53.109375 105.28125 -71.046875 C 105.28125 -89.140625 104.164062 -103.316406 101.9375 -113.578125 C 99.71875 -123.835938 96.164062 -131.082031 91.28125 -135.3125 C 86.40625 -139.550781 80.019531 -141.671875 72.125 -141.671875 C 64.375 -141.671875 58.054688 -139.550781 53.171875 -135.3125 C 48.296875 -131.082031 44.742188 -123.835938 42.515625 -113.578125 C 40.296875 -103.316406 39.1875 -89.140625 39.1875 -71.046875 C 39.1875 -53.109375 40.296875 -39.003906 42.515625 -28.734375 C 44.742188 -18.472656 48.296875 -11.222656 53.171875 -6.984375 C 58.054688 -2.753906 64.375 -0.640625 72.125 -0.640625 Z M 72.125 -0.640625 "/></g></g></g><g fill="#f8f8f2" fill-opacity="1"><g transform="translate(448.817917, 465.475116)"><g><path d="M 41.125 2.796875 L 4.734375 0 L 4.734375 -2.15625 L 6.890625 -2.578125 C 12.484375 -3.867188 15.28125 -7.457031 15.28125 -13.34375 L 15.28125 -128.546875 C 15.28125 -131.554688 14.8125 -133.847656 13.875 -135.421875 C 12.945312 -137.003906 11.050781 -138.082031 8.1875 -138.65625 L 5.171875 -139.515625 L 5.171875 -141.671875 L 43.5 -150.9375 L 46.078125 -149 L 45.21875 -118.640625 L 45.21875 -96.890625 C 49.957031 -100.191406 55.125 -102.664062 60.71875 -104.3125 C 66.3125 -105.96875 71.984375 -106.796875 77.734375 -106.796875 C 85.910156 -106.796875 93.15625 -104.894531 99.46875 -101.09375 C 105.789062 -97.289062 110.78125 -91.40625 114.4375 -83.4375 C 118.09375 -75.46875 119.921875 -65.238281 119.921875 -52.75 C 119.921875 -40.257812 117.875 -29.890625 113.78125 -21.640625 C 109.695312 -13.390625 104.242188 -7.179688 97.421875 -3.015625 C 90.609375 1.148438 83.109375 3.234375 74.921875 3.234375 C 69.617188 3.234375 64.273438 2.515625 58.890625 1.078125 C 53.503906 -0.359375 48.726562 -2.367188 44.5625 -4.953125 Z M 64.15625 -4.09375 C 68.75 -4.09375 72.769531 -5.523438 76.21875 -8.390625 C 79.664062 -11.265625 82.394531 -16.179688 84.40625 -23.140625 C 86.414062 -30.109375 87.421875 -39.691406 87.421875 -51.890625 C 87.421875 -64.085938 86.484375 -73.488281 84.609375 -80.09375 C 82.742188 -86.695312 80.125 -91.289062 76.75 -93.875 C 73.382812 -96.457031 69.332031 -97.75 64.59375 -97.75 C 57.84375 -97.75 51.597656 -95.882812 45.859375 -92.15625 L 45.859375 -9.46875 C 48.585938 -7.75 51.382812 -6.421875 54.25 -5.484375 C 57.125 -4.554688 60.425781 -4.09375 64.15625 -4.09375 Z M 64.15625 -4.09375 "/></g></g></g><g fill="#f8f8f2" fill-opacity="1"><g transform="translate(567.452083, 465.475116)"><g><path d="M 41.5625 3.234375 C 34.519531 3.234375 28.195312 2.40625 22.59375 0.75 C 17 -0.894531 11.835938 -2.9375 7.109375 -5.375 L 7.328125 -31 L 9.46875 -31 L 16.796875 -18.09375 C 19.953125 -12.34375 23.429688 -8.066406 27.234375 -5.265625 C 31.035156 -2.472656 35.878906 -1.078125 41.765625 -1.078125 C 48.660156 -1.078125 54.222656 -2.617188 58.453125 -5.703125 C 62.691406 -8.785156 64.8125 -12.914062 64.8125 -18.09375 C 64.8125 -22.820312 63.300781 -26.691406 60.28125 -29.703125 C 57.269531 -32.722656 51.675781 -35.453125 43.5 -37.890625 L 34.453125 -40.6875 C 25.691406 -43.269531 18.800781 -47.289062 13.78125 -52.75 C 8.757812 -58.207031 6.25 -64.882812 6.25 -72.78125 C 6.25 -82.25 9.976562 -90.285156 17.4375 -96.890625 C 24.90625 -103.492188 35.597656 -106.796875 49.515625 -106.796875 C 55.117188 -106.796875 60.394531 -106.1875 65.34375 -104.96875 C 70.300781 -103.75 75.078125 -101.914062 79.671875 -99.46875 L 78.375 -76.21875 L 76.21875 -76.21875 L 68.6875 -89.5625 C 65.957031 -94.300781 63.265625 -97.640625 60.609375 -99.578125 C 57.953125 -101.515625 53.96875 -102.484375 48.65625 -102.484375 C 43.78125 -102.484375 39.1875 -101.117188 34.875 -98.390625 C 30.570312 -95.671875 28.421875 -91.796875 28.421875 -86.765625 C 28.421875 -81.890625 30.25 -78.015625 33.90625 -75.140625 C 37.570312 -72.273438 42.992188 -69.617188 50.171875 -67.171875 L 59.859375 -64.375 C 70.191406 -61.21875 77.582031 -56.875 82.03125 -51.34375 C 86.476562 -45.820312 88.703125 -39.1875 88.703125 -31.4375 C 88.703125 -20.957031 84.578125 -12.554688 76.328125 -6.234375 C 68.078125 0.078125 56.488281 3.234375 41.5625 3.234375 Z M 41.5625 3.234375 "/></g></g></g><g fill="#f8f8f2" fill-opacity="1"><g transform="translate(654.866554, 465.475116)"><g><path d="M 57.703125 3.234375 C 47.941406 3.234375 39.078125 1.117188 31.109375 -3.109375 C 23.140625 -7.347656 16.820312 -13.519531 12.15625 -21.625 C 7.5 -29.738281 5.171875 -39.679688 5.171875 -51.453125 C 5.171875 -63.085938 7.71875 -73.03125 12.8125 -81.28125 C 17.90625 -89.53125 24.722656 -95.84375 33.265625 -100.21875 C 41.804688 -104.601562 51.171875 -106.796875 61.359375 -106.796875 C 69.691406 -106.796875 76.726562 -105.429688 82.46875 -102.703125 C 88.207031 -99.972656 92.582031 -96.421875 95.59375 -92.046875 C 98.613281 -87.671875 100.125 -83.113281 100.125 -78.375 C 100.125 -74.351562 98.898438 -71.226562 96.453125 -69 C 94.015625 -66.78125 90.859375 -65.671875 86.984375 -65.671875 C 82.816406 -65.671875 79.441406 -67.175781 76.859375 -70.1875 C 74.273438 -73.207031 72.769531 -77.15625 72.34375 -82.03125 C 72.195312 -85.1875 72.265625 -87.878906 72.546875 -90.109375 C 72.835938 -92.335938 72.84375 -94.597656 72.5625 -96.890625 C 71.988281 -99.328125 71.085938 -100.941406 69.859375 -101.734375 C 68.640625 -102.523438 66.957031 -102.921875 64.8125 -102.921875 C 56.050781 -102.921875 49.265625 -99.113281 44.453125 -91.5 C 39.648438 -83.894531 37.25 -71.769531 37.25 -55.125 C 37.25 -40.625 39.9375 -29.53125 45.3125 -21.84375 C 50.695312 -14.164062 58.988281 -10.328125 70.1875 -10.328125 C 76.9375 -10.328125 82.390625 -11.546875 86.546875 -13.984375 C 90.710938 -16.429688 94.734375 -20.09375 98.609375 -24.96875 L 100.765625 -23.25 C 97.179688 -14.78125 91.65625 -8.25 84.1875 -3.65625 C 76.71875 0.9375 67.890625 3.234375 57.703125 3.234375 Z M 57.703125 3.234375 "/></g></g></g><g fill="#f8f8f2" fill-opacity="1"><g transform="translate(754.768913, 465.475116)"><g><path d="M 43.28125 3.234375 C 37.675781 3.234375 32.539062 2.15625 27.875 0 C 23.21875 -2.15625 19.5625 -5.632812 16.90625 -10.4375 C 14.25 -15.25 12.992188 -21.601562 13.140625 -29.5 L 13.78125 -84.828125 C 13.78125 -88.128906 13.203125 -90.5 12.046875 -91.9375 C 10.898438 -93.375 9.109375 -94.378906 6.671875 -94.953125 L 4.09375 -95.8125 L 4.09375 -97.96875 L 42.625 -105.5 L 44.78125 -103.34375 L 43.703125 -72.78125 L 43.703125 -20.890625 C 43.703125 -16.296875 45.03125 -12.921875 47.6875 -10.765625 C 50.34375 -8.609375 53.679688 -7.53125 57.703125 -7.53125 C 61.722656 -7.53125 65.3125 -8.101562 68.46875 -9.25 C 71.625 -10.40625 74.78125 -12.128906 77.9375 -14.421875 L 78.796875 -84.625 C 78.796875 -87.914062 78.296875 -90.242188 77.296875 -91.609375 C 76.296875 -92.972656 74.429688 -93.941406 71.703125 -94.515625 L 69.546875 -95.171875 L 69.546875 -97.328125 L 107.21875 -105.5 L 109.375 -103.34375 L 108.734375 -72.78125 L 108.734375 -14.421875 C 108.734375 -11.265625 109.160156 -8.820312 110.015625 -7.09375 C 110.878906 -5.375 112.75 -3.941406 115.625 -2.796875 L 117.78125 -2.15625 L 117.78125 0 L 80.09375 2.15625 L 78.15625 -10.546875 C 73.414062 -6.671875 68.28125 -3.40625 62.75 -0.75 C 57.226562 1.90625 50.738281 3.234375 43.28125 3.234375 Z M 43.28125 3.234375 "/></g></g></g><g fill="#f8f8f2" fill-opacity="1"><g transform="translate(870.388753, 465.475116)"><g><path d="M 4.3125 0 L 4.3125 -2.15625 L 7.53125 -3.015625 C 10.40625 -3.878906 12.378906 -5.171875 13.453125 -6.890625 C 14.535156 -8.609375 15.078125 -10.832031 15.078125 -13.5625 L 15.078125 -80.953125 C 15.078125 -84.109375 14.535156 -86.441406 13.453125 -87.953125 C 12.378906 -89.460938 10.40625 -90.503906 7.53125 -91.078125 L 4.3125 -91.9375 L 4.3125 -94.09375 L 41.34375 -106.578125 L 43.5 -104.421875 L 45.4375 -85.90625 L 45.4375 -84.1875 C 47.4375 -88.207031 50.050781 -91.898438 53.28125 -95.265625 C 56.519531 -98.640625 60.109375 -101.40625 64.046875 -103.5625 C 67.992188 -105.71875 71.910156 -106.796875 75.796875 -106.796875 C 81.242188 -106.796875 85.398438 -105.285156 88.265625 -102.265625 C 91.140625 -99.253906 92.578125 -95.453125 92.578125 -90.859375 C 92.578125 -85.984375 91.175781 -82.21875 88.375 -79.5625 C 85.582031 -76.90625 82.25 -75.578125 78.375 -75.578125 C 72.34375 -75.578125 67.03125 -78.59375 62.4375 -84.625 L 62.015625 -85.046875 C 60.578125 -87.054688 58.925781 -88.164062 57.0625 -88.375 C 55.195312 -88.59375 53.472656 -87.695312 51.890625 -85.6875 C 50.453125 -84.394531 49.265625 -82.851562 48.328125 -81.0625 C 47.398438 -79.269531 46.503906 -77.222656 45.640625 -74.921875 L 45.640625 -14.859375 C 45.640625 -9.117188 48.15625 -5.53125 53.1875 -4.09375 L 60.078125 -2.15625 L 60.078125 0 Z M 4.3125 0 "/></g></g></g><g fill="#f8f8f2" fill-opacity="1"><g transform="translate(958.879771, 465.475116)"><g><path d="M 35.734375 3.234375 C 27.410156 3.234375 20.414062 0.863281 14.75 -3.875 C 9.082031 -8.613281 6.25 -15.429688 6.25 -24.328125 C 6.25 -31.078125 9.691406 -37.285156 16.578125 -42.953125 C 23.460938 -48.617188 34.300781 -52.890625 49.09375 -55.765625 C 51.382812 -56.191406 53.96875 -56.65625 56.84375 -57.15625 C 59.71875 -57.664062 62.734375 -58.207031 65.890625 -58.78125 L 65.890625 -75.796875 C 65.890625 -85.554688 64.703125 -92.40625 62.328125 -96.34375 C 59.960938 -100.289062 56.269531 -102.265625 51.25 -102.265625 C 47.800781 -102.265625 45.070312 -101.148438 43.0625 -98.921875 C 41.050781 -96.703125 39.757812 -92.867188 39.1875 -87.421875 L 38.75 -85.046875 C 38.46875 -78.878906 36.960938 -74.359375 34.234375 -71.484375 C 31.503906 -68.609375 28.128906 -67.171875 24.109375 -67.171875 C 20.378906 -67.171875 17.296875 -68.316406 14.859375 -70.609375 C 12.421875 -72.910156 11.203125 -76 11.203125 -79.875 C 11.203125 -85.757812 13.242188 -90.710938 17.328125 -94.734375 C 21.421875 -98.753906 26.835938 -101.769531 33.578125 -103.78125 C 40.328125 -105.789062 47.648438 -106.796875 55.546875 -106.796875 C 68.328125 -106.796875 78.195312 -103.671875 85.15625 -97.421875 C 92.113281 -91.179688 95.59375 -81.03125 95.59375 -66.96875 L 95.59375 -19.375 C 95.59375 -12.914062 98.609375 -9.6875 104.640625 -9.6875 L 109.375 -9.6875 L 111.3125 -7.96875 C 108.582031 -4.519531 105.601562 -1.863281 102.375 0 C 99.144531 1.863281 94.585938 2.796875 88.703125 2.796875 C 82.390625 2.796875 77.398438 1.328125 73.734375 -1.609375 C 70.078125 -4.554688 67.675781 -8.46875 66.53125 -13.34375 C 62.226562 -8.75 57.8125 -4.835938 53.28125 -1.609375 C 48.757812 1.617188 42.910156 3.234375 35.734375 3.234375 Z M 48.875 -9.90625 C 51.75 -9.90625 54.441406 -10.585938 56.953125 -11.953125 C 59.460938 -13.316406 62.441406 -15.429688 65.890625 -18.296875 L 65.890625 -54.46875 C 64.453125 -54.1875 63.015625 -53.898438 61.578125 -53.609375 C 60.140625 -53.328125 58.488281 -53.039062 56.625 -52.75 C 50.019531 -51.03125 44.742188 -48.125 40.796875 -44.03125 C 36.847656 -39.9375 34.875 -34.445312 34.875 -27.5625 C 34.875 -21.675781 36.238281 -17.257812 38.96875 -14.3125 C 41.695312 -11.375 45 -9.90625 48.875 -9.90625 Z M 48.875 -9.90625 "/></g></g></g><g fill="#f8f8f2" fill-opacity="1"><g transform="translate(1063.949539, 465.475116)"><g><path d="M 32.296875 3.234375 C 27.128906 3.234375 22.75 1.441406 19.15625 -2.140625 C 15.570312 -5.734375 13.78125 -10.046875 13.78125 -15.078125 C 13.78125 -20.097656 15.570312 -24.472656 19.15625 -28.203125 C 22.75 -31.929688 27.128906 -33.796875 32.296875 -33.796875 C 37.460938 -33.796875 41.835938 -31.929688 45.421875 -28.203125 C 49.015625 -24.472656 50.8125 -20.097656 50.8125 -15.078125 C 50.8125 -10.046875 49.015625 -5.734375 45.421875 -2.140625 C 41.835938 1.441406 37.460938 3.234375 32.296875 3.234375 Z M 32.296875 3.234375 "/></g></g></g></svg>
