<svg xmlns="http://www.w3.org/2000/svg" xmlns:xlink="http://www.w3.org/1999/xlink" width="500" zoomAndPan="magnify" viewBox="0 0 375 374.999991" height="500" preserveAspectRatio="xMidYMid meet" version="1.0"><defs><g/><clipPath id="f68666f635"><path d="M 102.492188 187.199219 L 272.207031 187.199219 L 272.207031 200.980469 L 102.492188 200.980469 Z M 102.492188 187.199219 " clip-rule="nonzero"/></clipPath></defs><g fill="#d8d393" fill-opacity="1"><g transform="translate(24.163944, 225.887548)"><g><path d="M 2.234375 -28.328125 C 2.234375 -32.890625 2.765625 -36.984375 3.828125 -40.609375 C 4.890625 -44.242188 6.394531 -47.316406 8.34375 -49.828125 C 10.300781 -52.347656 12.613281 -54.269531 15.28125 -55.59375 C 17.945312 -56.925781 20.867188 -57.59375 24.046875 -57.59375 C 27.222656 -57.59375 30.144531 -56.925781 32.8125 -55.59375 C 35.476562 -54.269531 37.789062 -52.347656 39.75 -49.828125 C 41.707031 -47.316406 43.210938 -44.242188 44.265625 -40.609375 C 45.328125 -36.984375 45.859375 -32.890625 45.859375 -28.328125 C 45.859375 -22.191406 44.929688 -16.9375 43.078125 -12.5625 C 41.222656 -8.195312 38.65625 -4.851562 35.375 -2.53125 C 32.09375 -0.21875 28.316406 0.9375 24.046875 0.9375 C 19.804688 0.9375 16.035156 -0.21875 12.734375 -2.53125 C 9.441406 -4.851562 6.867188 -8.195312 5.015625 -12.5625 C 3.160156 -16.9375 2.234375 -22.191406 2.234375 -28.328125 Z M 18.625 -28.265625 C 18.625 -25.390625 18.640625 -22.578125 18.671875 -19.828125 C 18.710938 -17.078125 18.816406 -14.5 18.984375 -12.09375 C 19.148438 -9.695312 19.421875 -7.59375 19.796875 -5.78125 C 20.179688 -3.976562 20.710938 -2.5625 21.390625 -1.53125 C 22.066406 -0.507812 22.953125 0 24.046875 0 C 25.140625 0 26.023438 -0.507812 26.703125 -1.53125 C 27.378906 -2.5625 27.910156 -3.976562 28.296875 -5.78125 C 28.679688 -7.59375 28.953125 -9.695312 29.109375 -12.09375 C 29.273438 -14.5 29.375 -17.078125 29.40625 -19.828125 C 29.445312 -22.578125 29.46875 -25.390625 29.46875 -28.265625 C 29.46875 -31.148438 29.445312 -33.972656 29.40625 -36.734375 C 29.375 -39.503906 29.273438 -42.085938 29.109375 -44.484375 C 28.953125 -46.890625 28.679688 -49.003906 28.296875 -50.828125 C 27.910156 -52.648438 27.367188 -54.070312 26.671875 -55.09375 C 25.984375 -56.125 25.109375 -56.640625 24.046875 -56.640625 C 22.984375 -56.640625 22.101562 -56.125 21.40625 -55.09375 C 20.71875 -54.070312 20.179688 -52.648438 19.796875 -50.828125 C 19.421875 -49.003906 19.148438 -46.890625 18.984375 -44.484375 C 18.816406 -42.085938 18.710938 -39.503906 18.671875 -36.734375 C 18.640625 -33.972656 18.625 -31.148438 18.625 -28.265625 Z M 18.625 -28.265625 "/></g></g></g><g fill="#d8d393" fill-opacity="1"><g transform="translate(70.770642, 225.887548)"><g><path d="M 4.46875 -49.6875 C 4.46875 -51.539062 4.21875 -53.003906 3.71875 -54.078125 C 3.226562 -55.160156 2.398438 -55.847656 1.234375 -56.140625 L 1.234375 -56.640625 L 30.015625 -56.640625 C 33.585938 -56.640625 36.566406 -56.09375 38.953125 -55 C 41.335938 -53.90625 43.117188 -52.421875 44.296875 -50.546875 C 45.472656 -48.679688 46.0625 -46.554688 46.0625 -44.171875 C 46.0625 -42.742188 45.8125 -41.351562 45.3125 -40 C 44.8125 -38.644531 43.988281 -37.394531 42.84375 -36.25 C 41.707031 -35.101562 40.160156 -34.125 38.203125 -33.3125 C 36.253906 -32.5 33.820312 -31.925781 30.90625 -31.59375 C 42.53125 -30.507812 48.34375 -25.195312 48.34375 -15.65625 C 48.34375 -13.632812 47.976562 -11.6875 47.25 -9.8125 C 46.519531 -7.9375 45.414062 -6.257812 43.9375 -4.78125 C 42.46875 -3.3125 40.648438 -2.144531 38.484375 -1.28125 C 36.316406 -0.425781 33.789062 0 30.90625 0 L 1.234375 0 L 1.234375 -0.5 C 2.398438 -0.789062 3.226562 -1.484375 3.71875 -2.578125 C 4.21875 -3.671875 4.46875 -5.128906 4.46875 -6.953125 Z M 20.375 -1 L 22.40625 -1 C 24.457031 -1 26.1875 -1.644531 27.59375 -2.9375 C 29.007812 -4.226562 30.082031 -6.003906 30.8125 -8.265625 C 31.539062 -10.535156 31.90625 -13.160156 31.90625 -16.140625 C 31.90625 -19.023438 31.5625 -21.578125 30.875 -23.796875 C 30.195312 -26.015625 29.113281 -27.753906 27.625 -29.015625 C 26.132812 -30.273438 24.164062 -30.90625 21.71875 -30.90625 L 20.375 -30.90625 Z M 22.515625 -55.65625 L 20.375 -55.65625 L 20.375 -31.90625 L 21.71875 -31.90625 C 23.695312 -31.90625 25.265625 -32.46875 26.421875 -33.59375 C 27.585938 -34.71875 28.414062 -36.191406 28.90625 -38.015625 C 29.40625 -39.835938 29.65625 -41.789062 29.65625 -43.875 C 29.65625 -45.863281 29.414062 -47.75 28.9375 -49.53125 C 28.457031 -51.320312 27.695312 -52.789062 26.65625 -53.9375 C 25.613281 -55.082031 24.234375 -55.65625 22.515625 -55.65625 Z M 22.515625 -55.65625 "/></g></g></g><g fill="#d8d393" fill-opacity="1"><g transform="translate(119.861719, 225.887548)"><g><path d="M 29.3125 -7.15625 C 29.3125 -9.34375 28.929688 -11.226562 28.171875 -12.8125 C 27.410156 -14.40625 26.382812 -15.796875 25.09375 -16.984375 C 23.800781 -18.179688 22.347656 -19.269531 20.734375 -20.25 C 19.128906 -21.226562 17.472656 -22.1875 15.765625 -23.125 C 14.066406 -24.070312 12.410156 -25.082031 10.796875 -26.15625 C 9.191406 -27.238281 7.742188 -28.488281 6.453125 -29.90625 C 5.160156 -31.332031 4.132812 -33.015625 3.375 -34.953125 C 2.613281 -36.890625 2.234375 -39.1875 2.234375 -41.84375 C 2.234375 -45.445312 3.0625 -48.40625 4.71875 -50.71875 C 6.375 -53.039062 8.625 -54.765625 11.46875 -55.890625 C 14.320312 -57.023438 17.519531 -57.59375 21.0625 -57.59375 C 22.851562 -57.59375 24.476562 -57.515625 25.9375 -57.359375 C 27.394531 -57.210938 28.851562 -57.054688 30.3125 -56.890625 C 31.769531 -56.722656 33.390625 -56.640625 35.171875 -56.640625 C 35.671875 -56.640625 36.207031 -56.710938 36.78125 -56.859375 C 37.363281 -57.015625 37.789062 -57.257812 38.0625 -57.59375 L 38.5625 -57.59375 L 38.5625 -39.546875 L 38.0625 -39.546875 C 37.894531 -40.910156 37.445312 -42.367188 36.71875 -43.921875 C 35.988281 -45.484375 35.050781 -47.007812 33.90625 -48.5 C 32.769531 -49.988281 31.488281 -51.351562 30.0625 -52.59375 C 28.632812 -53.832031 27.148438 -54.816406 25.609375 -55.546875 C 24.066406 -56.273438 22.535156 -56.640625 21.015625 -56.640625 C 19.128906 -56.640625 17.53125 -56.050781 16.21875 -54.875 C 14.914062 -53.695312 14.265625 -52.035156 14.265625 -49.890625 C 14.265625 -47.796875 14.644531 -45.988281 15.40625 -44.46875 C 16.164062 -42.945312 17.195312 -41.613281 18.5 -40.46875 C 19.8125 -39.320312 21.269531 -38.273438 22.875 -37.328125 C 24.488281 -36.390625 26.164062 -35.460938 27.90625 -34.546875 C 29.644531 -33.640625 31.316406 -32.648438 32.921875 -31.578125 C 34.523438 -30.503906 35.976562 -29.28125 37.28125 -27.90625 C 38.59375 -26.53125 39.628906 -24.894531 40.390625 -23 C 41.148438 -21.113281 41.53125 -18.894531 41.53125 -16.34375 C 41.53125 -13.894531 41.050781 -11.617188 40.09375 -9.515625 C 39.132812 -7.410156 37.785156 -5.578125 36.046875 -4.015625 C 34.304688 -2.460938 32.257812 -1.25 29.90625 -0.375 C 27.5625 0.5 24.992188 0.9375 22.203125 0.9375 C 19.492188 0.9375 17.035156 0.726562 14.828125 0.3125 C 12.628906 -0.09375 10.5625 -0.734375 8.625 -1.609375 C 6.6875 -2.492188 4.753906 -3.628906 2.828125 -5.015625 L 2.828125 -23.796875 L 3.421875 -23.796875 C 3.421875 -23.097656 3.644531 -22.035156 4.09375 -20.609375 C 4.539062 -19.191406 5.175781 -17.585938 6 -15.796875 C 6.832031 -14.015625 7.820312 -12.210938 8.96875 -10.390625 C 10.113281 -8.566406 11.378906 -6.875 12.765625 -5.3125 C 14.160156 -3.757812 15.644531 -2.5 17.21875 -1.53125 C 18.789062 -0.570312 20.421875 -0.09375 22.109375 -0.09375 C 23.960938 -0.09375 25.410156 -0.40625 26.453125 -1.03125 C 27.503906 -1.664062 28.242188 -2.515625 28.671875 -3.578125 C 29.097656 -4.640625 29.3125 -5.832031 29.3125 -7.15625 Z M 29.3125 -7.15625 "/></g></g></g><g fill="#d8d393" fill-opacity="1"><g transform="translate(162.14561, 225.887548)"><g><path d="M 2.234375 -28.328125 C 2.234375 -32.890625 2.894531 -36.984375 4.21875 -40.609375 C 5.539062 -44.242188 7.351562 -47.316406 9.65625 -49.828125 C 11.96875 -52.347656 14.613281 -54.269531 17.59375 -55.59375 C 20.570312 -56.925781 23.734375 -57.59375 27.078125 -57.59375 C 28.429688 -57.59375 29.585938 -57.539062 30.546875 -57.4375 C 31.515625 -57.34375 32.425781 -57.234375 33.28125 -57.109375 C 34.144531 -56.992188 35.066406 -56.882812 36.046875 -56.78125 C 37.023438 -56.6875 38.175781 -56.640625 39.5 -56.640625 C 40 -56.640625 40.535156 -56.710938 41.109375 -56.859375 C 41.691406 -57.015625 42.117188 -57.257812 42.390625 -57.59375 L 42.875 -57.59375 L 42.875 -39.546875 L 42.390625 -39.546875 C 42.222656 -40.910156 41.894531 -42.359375 41.40625 -43.890625 C 40.925781 -45.429688 40.304688 -46.945312 39.546875 -48.4375 C 38.785156 -49.9375 37.882812 -51.296875 36.84375 -52.515625 C 35.800781 -53.742188 34.632812 -54.722656 33.34375 -55.453125 C 32.050781 -56.179688 30.640625 -56.546875 29.109375 -56.546875 C 27.191406 -56.546875 25.570312 -55.757812 24.25 -54.1875 C 22.925781 -52.613281 21.847656 -50.484375 21.015625 -47.796875 C 20.191406 -45.117188 19.585938 -42.097656 19.203125 -38.734375 C 18.816406 -35.367188 18.625 -31.878906 18.625 -28.265625 C 18.625 -25.421875 18.738281 -22.625 18.96875 -19.875 C 19.207031 -17.125 19.582031 -14.546875 20.09375 -12.140625 C 20.613281 -9.742188 21.285156 -7.632812 22.109375 -5.8125 C 22.941406 -3.988281 23.9375 -2.5625 25.09375 -1.53125 C 26.25 -0.507812 27.585938 0 29.109375 0 C 30.367188 0 31.546875 -0.394531 32.640625 -1.1875 C 33.734375 -1.988281 34.734375 -3.050781 35.640625 -4.375 C 36.554688 -5.695312 37.378906 -7.148438 38.109375 -8.734375 C 38.835938 -10.328125 39.484375 -11.921875 40.046875 -13.515625 C 40.609375 -15.109375 41.078125 -16.582031 41.453125 -17.9375 C 41.835938 -19.289062 42.148438 -20.367188 42.390625 -21.171875 L 42.875 -21.171875 L 42.875 -3.125 C 42.875 -3.125 42.578125 -2.914062 41.984375 -2.5 C 41.390625 -2.09375 40.460938 -1.625 39.203125 -1.09375 C 37.941406 -0.5625 36.304688 -0.09375 34.296875 0.3125 C 32.296875 0.726562 29.890625 0.9375 27.078125 0.9375 C 23.734375 0.9375 20.570312 0.273438 17.59375 -1.046875 C 14.613281 -2.367188 11.96875 -4.285156 9.65625 -6.796875 C 7.351562 -9.316406 5.539062 -12.390625 4.21875 -16.015625 C 2.894531 -19.648438 2.234375 -23.753906 2.234375 -28.328125 Z M 2.234375 -28.328125 "/></g></g></g><g fill="#d8d393" fill-opacity="1"><g transform="translate(205.771057, 225.887548)"><g><path d="M 1.234375 -56.640625 L 23.59375 -56.640625 L 23.59375 -56.140625 C 22.4375 -55.847656 21.609375 -55.160156 21.109375 -54.078125 C 20.617188 -53.003906 20.375 -51.539062 20.375 -49.6875 L 20.375 -8.453125 C 20.375 -7.722656 20.390625 -6.910156 20.421875 -6.015625 C 20.453125 -5.117188 20.570312 -4.25 20.78125 -3.40625 C 21 -2.5625 21.375 -1.863281 21.90625 -1.3125 C 22.4375 -0.769531 23.203125 -0.5 24.203125 -0.5 C 25.253906 -0.5 26.050781 -0.753906 26.59375 -1.265625 C 27.144531 -1.773438 27.53125 -2.441406 27.75 -3.265625 C 27.96875 -4.097656 28.082031 -4.96875 28.09375 -5.875 C 28.113281 -6.789062 28.125 -7.648438 28.125 -8.453125 L 28.125 -49.6875 C 28.125 -51.539062 27.875 -53.003906 27.375 -54.078125 C 26.875 -55.160156 26.046875 -55.847656 24.890625 -56.140625 L 24.890625 -56.640625 L 47.25 -56.640625 L 47.25 -56.140625 C 46.09375 -55.847656 45.265625 -55.160156 44.765625 -54.078125 C 44.265625 -53.003906 44.015625 -51.539062 44.015625 -49.6875 L 44.015625 -17.984375 C 44.015625 -14.015625 43.34375 -10.617188 42 -7.796875 C 40.664062 -4.984375 38.546875 -2.820312 35.640625 -1.3125 C 32.742188 0.1875 28.945312 0.9375 24.25 0.9375 C 19.570312 0.9375 15.773438 0.1875 12.859375 -1.3125 C 9.953125 -2.820312 7.828125 -4.984375 6.484375 -7.796875 C 5.140625 -10.617188 4.46875 -14.015625 4.46875 -17.984375 L 4.46875 -49.6875 C 4.46875 -51.539062 4.21875 -53.003906 3.71875 -54.078125 C 3.226562 -55.160156 2.398438 -55.847656 1.234375 -56.140625 Z M 1.234375 -56.640625 "/></g></g></g><g fill="#d8d393" fill-opacity="1"><g transform="translate(252.775246, 225.887548)"><g><path d="M 1.234375 -56.140625 L 1.234375 -56.640625 L 29.90625 -56.640625 C 33.289062 -56.640625 36.109375 -56.050781 38.359375 -54.875 C 40.609375 -53.695312 42.296875 -52.128906 43.421875 -50.171875 C 44.546875 -48.222656 45.109375 -46.070312 45.109375 -43.71875 C 45.109375 -41.269531 44.65625 -39.234375 43.75 -37.609375 C 42.84375 -35.984375 41.578125 -34.707031 39.953125 -33.78125 C 38.328125 -32.851562 36.445312 -32.191406 34.3125 -31.796875 C 32.175781 -31.398438 29.863281 -31.203125 27.375 -31.203125 C 30.226562 -30.609375 32.554688 -29.707031 34.359375 -28.5 C 36.160156 -27.289062 37.609375 -25.878906 38.703125 -24.265625 C 39.796875 -22.660156 40.648438 -20.957031 41.265625 -19.15625 C 41.878906 -17.351562 42.382812 -15.546875 42.78125 -13.734375 C 43.175781 -11.929688 43.597656 -10.242188 44.046875 -8.671875 C 44.492188 -7.097656 45.101562 -5.726562 45.875 -4.5625 C 46.65625 -3.40625 47.726562 -2.582031 49.09375 -2.09375 C 49.09375 -2.09375 48.984375 -1.941406 48.765625 -1.640625 C 48.546875 -1.335938 48.164062 -0.976562 47.625 -0.5625 C 47.082031 -0.15625 46.3125 0.191406 45.3125 0.484375 C 44.320312 0.785156 43.046875 0.9375 41.484375 0.9375 C 38.367188 0.9375 35.828125 0.492188 33.859375 -0.390625 C 31.890625 -1.285156 30.363281 -2.488281 29.28125 -4 C 28.207031 -5.507812 27.4375 -7.195312 26.96875 -9.0625 C 26.507812 -10.9375 26.210938 -12.882812 26.078125 -14.90625 C 25.953125 -16.925781 25.851562 -18.867188 25.78125 -20.734375 C 25.71875 -22.609375 25.550781 -24.300781 25.28125 -25.8125 C 25.019531 -27.320312 24.515625 -28.519531 23.765625 -29.40625 C 23.023438 -30.300781 21.894531 -30.75 20.375 -30.75 L 20.375 -6.953125 C 20.375 -5.128906 20.617188 -3.671875 21.109375 -2.578125 C 21.609375 -1.484375 22.4375 -0.789062 23.59375 -0.5 L 23.59375 0 L 1.234375 0 L 1.234375 -0.5 C 2.398438 -0.789062 3.226562 -1.484375 3.71875 -2.578125 C 4.21875 -3.671875 4.46875 -5.128906 4.46875 -6.953125 L 4.46875 -49.6875 C 4.46875 -51.539062 4.21875 -53.003906 3.71875 -54.078125 C 3.226562 -55.160156 2.398438 -55.847656 1.234375 -56.140625 Z M 21.359375 -56 L 20.375 -56 L 20.375 -31.75 L 22.15625 -31.75 C 23.414062 -31.75 24.582031 -32.128906 25.65625 -32.890625 C 26.738281 -33.648438 27.601562 -34.941406 28.25 -36.765625 C 28.894531 -38.585938 29.21875 -41.085938 29.21875 -44.265625 C 29.21875 -46.285156 28.984375 -48.191406 28.515625 -49.984375 C 28.054688 -51.773438 27.265625 -53.222656 26.140625 -54.328125 C 25.015625 -55.441406 23.421875 -56 21.359375 -56 Z M 21.359375 -56 "/></g></g></g><g fill="#d8d393" fill-opacity="1"><g transform="translate(300.872586, 225.887548)"><g><path d="M 0 0 L 0 -0.5 C 0.625 -0.5 1.226562 -0.945312 1.8125 -1.84375 C 2.394531 -2.738281 2.941406 -3.878906 3.453125 -5.265625 C 3.960938 -6.660156 4.429688 -8.132812 4.859375 -9.6875 C 5.296875 -11.25 5.679688 -12.691406 6.015625 -14.015625 C 6.867188 -17.359375 7.648438 -20.445312 8.359375 -23.28125 C 9.078125 -26.113281 9.757812 -28.828125 10.40625 -31.421875 C 11.050781 -34.023438 11.695312 -36.625 12.34375 -39.21875 C 12.988281 -41.820312 13.675781 -44.546875 14.40625 -47.390625 C 15.132812 -50.242188 15.914062 -53.328125 16.75 -56.640625 L 33.1875 -56.640625 C 34.050781 -53.328125 34.835938 -50.242188 35.546875 -47.390625 C 36.265625 -44.546875 36.953125 -41.820312 37.609375 -39.21875 C 38.273438 -36.625 38.9375 -34.023438 39.59375 -31.421875 C 40.257812 -28.828125 40.941406 -26.113281 41.640625 -23.28125 C 42.335938 -20.445312 43.097656 -17.359375 43.921875 -14.015625 C 44.253906 -12.691406 44.632812 -11.25 45.0625 -9.6875 C 45.5 -8.132812 45.972656 -6.660156 46.484375 -5.265625 C 46.992188 -3.878906 47.535156 -2.738281 48.109375 -1.84375 C 48.691406 -0.945312 49.300781 -0.5 49.9375 -0.5 L 49.9375 0 L 25 0 L 25 -0.5 C 26.21875 -1.425781 27 -2.765625 27.34375 -4.515625 C 27.695312 -6.273438 27.78125 -8.269531 27.59375 -10.5 C 27.414062 -12.738281 27.078125 -15.019531 26.578125 -17.34375 L 12.578125 -17.34375 C 12.898438 -13.5 13.664062 -10.148438 14.875 -7.296875 C 16.082031 -4.453125 17.847656 -2.1875 20.171875 -0.5 L 20.171875 0 Z M 17.1875 -54.953125 C 15.53125 -47.703125 14.265625 -40.992188 13.390625 -34.828125 C 12.515625 -28.671875 12.222656 -23.171875 12.515625 -18.328125 L 26.390625 -18.328125 C 26.085938 -19.617188 25.78125 -20.882812 25.46875 -22.125 C 25.15625 -23.375 24.863281 -24.5625 24.59375 -25.6875 C 24 -28.007812 23.46875 -30.078125 23 -31.890625 C 22.539062 -33.710938 22.101562 -35.441406 21.6875 -37.078125 C 21.269531 -38.722656 20.847656 -40.40625 20.421875 -42.125 C 19.992188 -43.851562 19.519531 -45.742188 19 -47.796875 C 18.488281 -49.847656 17.882812 -52.234375 17.1875 -54.953125 Z M 17.1875 -54.953125 "/></g></g></g><g clip-path="url(#f68666f635)"><path fill="#d8d393" d="M 102.492188 187.199219 L 272.203125 187.199219 L 272.203125 200.980469 L 102.492188 200.980469 Z M 102.492188 187.199219 " fill-opacity="1" fill-rule="nonzero"/></g><g fill="#231f20" fill-opacity="1"><g transform="translate(152.02275, 195.272704)"><g><path d="M 2.234375 -4.671875 C 2.421875 -4.671875 2.597656 -4.648438 2.765625 -4.609375 C 2.929688 -4.566406 3.09375 -4.503906 3.25 -4.421875 C 3.40625 -4.347656 3.53125 -4.226562 3.625 -4.0625 C 3.71875 -3.894531 3.765625 -3.695312 3.765625 -3.46875 C 3.765625 -3.019531 3.546875 -2.691406 3.109375 -2.484375 C 3.703125 -2.304688 4 -1.925781 4 -1.34375 C 4 -0.445312 3.414062 0 2.25 0 L 0.484375 0 L 0.484375 -4.671875 Z M 2.109375 -2.703125 C 2.492188 -2.703125 2.765625 -2.757812 2.921875 -2.875 C 3.085938 -3 3.171875 -3.171875 3.171875 -3.390625 C 3.171875 -3.691406 3.078125 -3.890625 2.890625 -3.984375 C 2.703125 -4.078125 2.414062 -4.125 2.03125 -4.125 L 1.09375 -4.125 L 1.09375 -2.703125 Z M 3.359375 -1.34375 C 3.359375 -1.613281 3.269531 -1.816406 3.09375 -1.953125 C 2.925781 -2.085938 2.617188 -2.15625 2.171875 -2.15625 L 1.09375 -2.15625 L 1.09375 -0.546875 L 2.25 -0.546875 C 2.65625 -0.546875 2.941406 -0.613281 3.109375 -0.75 C 3.273438 -0.894531 3.359375 -1.09375 3.359375 -1.34375 Z M 3.359375 -1.34375 "/></g></g></g><g fill="#231f20" fill-opacity="1"><g transform="translate(161.583704, 195.272704)"><g><path d="M 1.8125 0 L 1.8125 -1.96875 L 0.015625 -4.671875 L 0.765625 -4.671875 L 2.171875 -2.53125 L 3.578125 -4.671875 L 4.296875 -4.671875 L 2.4375 -1.96875 L 2.4375 0 Z M 1.8125 0 "/></g></g></g><g fill="#231f20" fill-opacity="1"><g transform="translate(171.144658, 195.272704)"><g/></g></g><g fill="#231f20" fill-opacity="1"><g transform="translate(178.579503, 195.272704)"><g><path d="M -0.015625 0 L 1.78125 -4.671875 L 2.453125 -4.671875 L 4.359375 0 L 3.65625 0 L 3.109375 -1.421875 L 1.15625 -1.421875 L 0.65625 0 Z M 1.328125 -1.921875 L 2.921875 -1.921875 L 2.4375 -3.203125 C 2.320312 -3.503906 2.207031 -3.828125 2.09375 -4.171875 C 2.050781 -3.929688 1.96875 -3.632812 1.84375 -3.28125 Z M 1.328125 -1.921875 "/></g></g></g><g fill="#231f20" fill-opacity="1"><g transform="translate(188.140456, 195.272704)"><g><path d="M 0.515625 0 L 0.515625 -4.671875 L 1.140625 -4.671875 L 1.140625 -2.75 L 3.5625 -2.75 L 3.5625 -4.671875 L 4.1875 -4.671875 L 4.1875 0 L 3.5625 0 L 3.5625 -2.203125 L 1.140625 -2.203125 L 1.140625 0 Z M 0.515625 0 "/></g></g></g><g fill="#231f20" fill-opacity="1"><g transform="translate(198.060108, 195.272704)"><g><path d="M 0.484375 0 L 0.484375 -4.671875 L 1.421875 -4.671875 L 2.734375 -0.671875 L 4.109375 -4.671875 L 4.9375 -4.671875 L 4.9375 0 L 4.34375 0 L 4.34375 -3.90625 L 2.984375 0 L 2.421875 0 L 1.078125 -3.96875 L 1.078125 0 Z M 0.484375 0 "/></g></g></g><g fill="#231f20" fill-opacity="1"><g transform="translate(208.703686, 195.272704)"><g><path d="M -0.015625 0 L 1.78125 -4.671875 L 2.453125 -4.671875 L 4.359375 0 L 3.65625 0 L 3.109375 -1.421875 L 1.15625 -1.421875 L 0.65625 0 Z M 1.328125 -1.921875 L 2.921875 -1.921875 L 2.4375 -3.203125 C 2.320312 -3.503906 2.207031 -3.828125 2.09375 -4.171875 C 2.050781 -3.929688 1.96875 -3.632812 1.84375 -3.28125 Z M 1.328125 -1.921875 "/></g></g></g><g fill="#231f20" fill-opacity="1"><g transform="translate(218.264639, 195.272704)"><g><path d="M 0.5 0 L 0.5 -4.671875 L 2.109375 -4.671875 C 2.898438 -4.671875 3.472656 -4.476562 3.828125 -4.09375 C 4.179688 -3.707031 4.359375 -3.128906 4.359375 -2.359375 C 4.359375 -0.785156 3.632812 0 2.1875 0 Z M 1.125 -0.546875 L 2.125 -0.546875 C 2.71875 -0.546875 3.132812 -0.695312 3.375 -1 C 3.613281 -1.300781 3.734375 -1.753906 3.734375 -2.359375 C 3.734375 -2.972656 3.609375 -3.421875 3.359375 -3.703125 C 3.109375 -3.984375 2.6875 -4.125 2.09375 -4.125 L 1.125 -4.125 Z M 1.125 -0.546875 "/></g></g></g></svg>
