<?xml version="1.0" encoding="UTF-8"?>
<!DOCTYPE svg PUBLIC "-//W3C//DTD SVG 1.1//EN" "http://www.w3.org/Graphics/SVG/1.1/DTD/svg11.dtd">
<svg xmlns="http://www.w3.org/2000/svg" version="1.1" width="1280px" height="1268px" style="shape-rendering:geometricPrecision; text-rendering:geometricPrecision; image-rendering:optimizeQuality; fill-rule:evenodd; clip-rule:evenodd" xmlns:xlink="http://www.w3.org/1999/xlink">
<g><path style="opacity:1" fill="#000000" d="M -0.5,-0.5 C 426.167,-0.5 852.833,-0.5 1279.5,-0.5C 1279.5,422.167 1279.5,844.833 1279.5,1267.5C 852.833,1267.5 426.167,1267.5 -0.5,1267.5C -0.5,844.833 -0.5,422.167 -0.5,-0.5 Z"/></g>
<g><path style="opacity:1" fill="#68644a" d="M 487.5,563.5 C 489.265,562.539 491.265,562.205 493.5,562.5C 493.172,574.678 493.505,586.678 494.5,598.5C 494.44,599.043 494.107,599.376 493.5,599.5C 492.501,587.518 492.168,575.518 492.5,563.5C 490.833,563.5 489.167,563.5 487.5,563.5 Z"/></g>
<g><path style="opacity:1" fill="#fcf7d0" d="M 487.5,563.5 C 489.167,563.5 490.833,563.5 492.5,563.5C 492.168,575.518 492.501,587.518 493.5,599.5C 494.107,599.376 494.44,599.043 494.5,598.5C 514.076,589.796 527.409,595.463 534.5,615.5C 535.143,623.15 535.477,630.817 535.5,638.5C 534.343,641.273 533.676,644.273 533.5,647.5C 532.094,647.973 531.427,648.973 531.5,650.5C 521.794,668.35 506.794,675.517 486.5,672C 480.42,671.017 474.42,669.85 468.5,668.5C 468.5,634.833 468.5,601.167 468.5,567.5C 472.011,567.101 475.344,566.434 478.5,565.5C 481.546,564.938 484.546,564.271 487.5,563.5 Z"/></g>
<g><path style="opacity:1" fill="#999475" d="M 478.5,565.5 C 475.344,566.434 472.011,567.101 468.5,567.5C 468.5,601.167 468.5,634.833 468.5,668.5C 467.17,634.664 467.17,600.664 468.5,566.5C 471.758,565.583 475.091,565.249 478.5,565.5 Z"/></g>
<g><path style="opacity:1" fill="#94917c" d="M 411.5,577.5 C 408.482,579.4 405.149,580.733 401.5,581.5C 404.309,579.103 407.642,577.77 411.5,577.5 Z"/></g>
<g><path style="opacity:1" fill="#fbf6cf" d="M 411.5,577.5 C 423.785,575.82 434.785,578.654 444.5,586C 447.848,588.501 450.182,591.668 451.5,595.5C 451.427,597.027 452.094,598.027 453.5,598.5C 453.5,598.833 453.5,599.167 453.5,599.5C 453.259,601.898 453.926,603.898 455.5,605.5C 460.37,625.054 457.537,643.387 447,660.5C 441.579,666.959 434.745,670.959 426.5,672.5C 418.742,672.732 411.076,672.065 403.5,670.5C 394.738,666.684 388.405,660.351 384.5,651.5C 384.771,649.62 384.104,648.287 382.5,647.5C 381.518,644.237 380.851,640.903 380.5,637.5C 380.434,628.148 380.768,618.815 381.5,609.5C 383.642,606.2 384.975,602.533 385.5,598.5C 388.776,590.891 394.11,585.224 401.5,581.5C 405.149,580.733 408.482,579.4 411.5,577.5 Z"/></g>
<g><path style="opacity:1" fill="#a4a083" d="M 420.5,591.5 C 418.097,591.448 415.764,591.781 413.5,592.5C 414.312,591.007 415.645,590.34 417.5,590.5C 418.726,590.52 419.726,590.853 420.5,591.5 Z"/></g>
<g><path style="opacity:1" fill="#050503" d="M 420.5,591.5 C 425.969,594.407 428.969,599.074 429.5,605.5C 430.798,617.498 430.798,629.498 429.5,641.5C 429.293,647.448 427.293,652.781 423.5,657.5C 418.659,660.665 414.492,659.999 411,655.5C 408.176,650.223 406.676,644.556 406.5,638.5C 405.85,624.675 406.85,611.008 409.5,597.5C 410.08,595.251 411.413,593.585 413.5,592.5C 415.764,591.781 418.097,591.448 420.5,591.5 Z"/></g>
<g><path style="opacity:1" fill="#56554a" d="M 580.5,595.5 C 573.798,595.336 567.131,595.669 560.5,596.5C 564.034,594.952 567.867,594.286 572,594.5C 575.021,594.502 577.854,594.836 580.5,595.5 Z"/></g>
<g><path style="opacity:1" fill="#fcf7d0" d="M 700.5,653.5 C 703.625,654.479 706.958,654.813 710.5,654.5C 710.5,635.5 710.5,616.5 710.5,597.5C 718.505,596.499 726.505,595.499 734.5,594.5C 734.5,619.833 734.5,645.167 734.5,670.5C 726.5,670.5 718.5,670.5 710.5,670.5C 710.5,669.167 710.5,667.833 710.5,666.5C 709.209,666.263 708.209,666.596 707.5,667.5C 707.167,667.5 706.833,667.5 706.5,667.5C 703.911,667.461 701.911,668.461 700.5,670.5C 700.167,670.5 699.833,670.5 699.5,670.5C 693.797,670.625 688.13,670.292 682.5,669.5C 676.553,666.293 673.053,661.293 672,654.5C 671.5,635.836 671.333,617.17 671.5,598.5C 677.374,597.951 683.041,596.951 688.5,595.5C 691.054,594.612 693.721,594.279 696.5,594.5C 696.333,613.17 696.5,631.836 697,650.5C 697.422,652.426 698.589,653.426 700.5,653.5 Z"/></g>
<g><path style="opacity:1" fill="#a8a382" d="M 734.5,594.5 C 735.498,619.995 735.831,645.661 735.5,671.5C 726.833,671.5 718.167,671.5 709.5,671.5C 709.843,669.517 709.176,668.183 707.5,667.5C 708.209,666.596 709.209,666.263 710.5,666.5C 710.5,667.833 710.5,669.167 710.5,670.5C 718.5,670.5 726.5,670.5 734.5,670.5C 734.5,645.167 734.5,619.833 734.5,594.5 Z"/></g>
<g><path style="opacity:1" fill="#fdf8d0" d="M 771.5,594.5 C 771.192,596.924 771.526,599.257 772.5,601.5C 773.107,601.376 773.44,601.043 773.5,600.5C 775.316,598.863 777.316,597.363 779.5,596C 784.552,595.274 789.552,595.441 794.5,596.5C 794.5,604.167 794.5,611.833 794.5,619.5C 793.167,619.5 791.833,619.5 790.5,619.5C 786.031,618.565 781.697,617.232 777.5,615.5C 776.01,613.72 774.01,613.054 771.5,613.5C 771.5,632.5 771.5,651.5 771.5,670.5C 763.5,670.5 755.5,670.5 747.5,670.5C 747.5,646.167 747.5,621.833 747.5,597.5C 755.475,596.313 763.475,595.313 771.5,594.5 Z"/></g>
<g><path style="opacity:1" fill="#f9f4cd" d="M 580.5,595.5 C 584.426,596.552 588.426,597.218 592.5,597.5C 593.568,598.434 594.901,598.768 596.5,598.5C 596.666,602.514 596.499,606.514 596,610.5C 594.644,609.62 593.144,609.286 591.5,609.5C 588.572,609.435 585.905,608.768 583.5,607.5C 580.144,605.621 576.477,605.121 572.5,606C 571.944,606.383 571.611,606.883 571.5,607.5C 568.9,610.349 568.9,613.349 571.5,616.5C 578.972,621.472 586.305,626.639 593.5,632C 601.928,643.784 601.261,655.117 591.5,666C 587.864,669.466 583.531,671.299 578.5,671.5C 571.82,671.388 565.153,671.054 558.5,670.5C 555.219,670.58 552.219,669.913 549.5,668.5C 548.791,667.596 547.791,667.263 546.5,667.5C 545.903,662.706 546.57,658.373 548.5,654.5C 550.649,655.736 552.982,656.736 555.5,657.5C 560.003,659.871 564.669,660.538 569.5,659.5C 575.356,659.146 577.523,656.146 576,650.5C 566.763,644.599 558.096,637.932 550,630.5C 548.546,627.929 547.38,625.262 546.5,622.5C 546.437,617.797 546.771,613.13 547.5,608.5C 548.906,608.027 549.573,607.027 549.5,605.5C 551.76,600.859 555.427,597.859 560.5,596.5C 567.131,595.669 573.798,595.336 580.5,595.5 Z"/></g>
<g><path style="opacity:1" fill="#f8f3cd" d="M 661.5,597.5 C 662.436,601.735 662.769,606.069 662.5,610.5C 661.5,610.5 660.5,610.5 659.5,610.5C 657.05,610.702 654.717,610.369 652.5,609.5C 650.365,607.631 647.698,606.964 644.5,607.5C 642.143,607.337 639.81,607.503 637.5,608C 635.68,608.2 634.347,609.034 633.5,610.5C 632.094,610.973 631.427,611.973 631.5,613.5C 630.389,622.452 630.223,631.452 631,640.5C 634.782,654.147 643.616,659.147 657.5,655.5C 658.833,655.5 660.167,655.5 661.5,655.5C 661.263,656.791 661.596,657.791 662.5,658.5C 662.5,658.833 662.5,659.167 662.5,659.5C 662.721,662.279 662.388,664.946 661.5,667.5C 655.507,668.89 649.507,670.39 643.5,672C 637.984,672.817 632.65,672.651 627.5,671.5C 625.898,669.926 623.898,669.259 621.5,669.5C 618.112,668.381 615.279,666.381 613,663.5C 611.579,660.991 609.912,658.657 608,656.5C 607.16,653.798 606.327,651.132 605.5,648.5C 604.65,641.201 604.317,633.868 604.5,626.5C 606.31,623.855 607.31,620.855 607.5,617.5C 613.33,602.418 624.33,595.085 640.5,595.5C 647.538,595.84 654.538,596.507 661.5,597.5 Z"/></g>
<g><path style="opacity:1" fill="#fbf6cf" d="M 855.5,605.5 C 856.456,627.14 856.789,648.807 856.5,670.5C 848.833,670.5 841.167,670.5 833.5,670.5C 833.5,669.5 833.5,668.5 833.5,667.5C 829.638,668.428 825.971,669.928 822.5,672C 812.352,674.008 804.852,670.508 800,661.5C 792.917,643.02 798.417,630.353 816.5,623.5C 822.172,623.24 827.839,622.907 833.5,622.5C 833.815,618.629 833.482,614.962 832.5,611.5C 831.461,609.469 829.795,608.136 827.5,607.5C 826.378,606.844 825.045,606.511 823.5,606.5C 821.117,606.361 819.117,607.028 817.5,608.5C 813.562,610.035 809.562,611.368 805.5,612.5C 803.586,609.316 802.92,605.649 803.5,601.5C 815.708,596.626 828.375,594.793 841.5,596C 847.821,596.975 852.487,600.142 855.5,605.5 Z"/></g>
<g><path style="opacity:1" fill="#73705a" d="M 451.5,595.5 C 452.906,595.973 453.573,596.973 453.5,598.5C 452.094,598.027 451.427,597.027 451.5,595.5 Z"/></g>
<g><path style="opacity:1" fill="#9f9c81" d="M 688.5,595.5 C 683.041,596.951 677.374,597.951 671.5,598.5C 671.918,597.778 672.584,597.278 673.5,597C 678.448,595.95 683.448,595.45 688.5,595.5 Z"/></g>
<g><path style="opacity:1" fill="#a6a495" d="M 771.5,594.5 C 772.167,596.5 772.833,598.5 773.5,600.5C 773.44,601.043 773.107,601.376 772.5,601.5C 771.526,599.257 771.192,596.924 771.5,594.5 Z"/></g>
<g><path style="opacity:1" fill="#b7b494" d="M 794.5,596.5 C 795.821,604.676 795.821,613.009 794.5,621.5C 792.974,621.006 791.641,620.339 790.5,619.5C 791.833,619.5 793.167,619.5 794.5,619.5C 794.5,611.833 794.5,604.167 794.5,596.5 Z"/></g>
<g><path style="opacity:1" fill="#aaa68d" d="M 385.5,598.5 C 384.975,602.533 383.642,606.2 381.5,609.5C 382.025,605.467 383.358,601.8 385.5,598.5 Z"/></g>
<g><path style="opacity:1" fill="#646145" d="M 710.5,597.5 C 710.5,616.5 710.5,635.5 710.5,654.5C 706.958,654.813 703.625,654.479 700.5,653.5C 703.5,653.5 706.5,653.5 709.5,653.5C 709.17,634.659 709.503,615.993 710.5,597.5 Z"/></g>
<g><path style="opacity:1" fill="#a6a286" d="M 453.5,599.5 C 455.074,601.102 455.741,603.102 455.5,605.5C 453.926,603.898 453.259,601.898 453.5,599.5 Z"/></g>
<g><path style="opacity:1" fill="#a8a58d" d="M 583.5,607.5 C 579.472,606.38 575.472,606.38 571.5,607.5C 571.611,606.883 571.944,606.383 572.5,606C 576.477,605.121 580.144,605.621 583.5,607.5 Z"/></g>
<g><path style="opacity:1" fill="#ada98c" d="M 827.5,607.5 C 824.14,607.616 820.807,607.949 817.5,608.5C 819.117,607.028 821.117,606.361 823.5,606.5C 825.045,606.511 826.378,606.844 827.5,607.5 Z"/></g>
<g><path style="opacity:1" fill="#8c8a70" d="M 549.5,605.5 C 549.573,607.027 548.906,608.027 547.5,608.5C 547.427,606.973 548.094,605.973 549.5,605.5 Z"/></g>
<g><path style="opacity:1" fill="#a7a58d" d="M 644.5,607.5 C 647.698,606.964 650.365,607.631 652.5,609.5C 649.572,609.435 646.905,608.768 644.5,607.5 Z"/></g>
<g><path style="opacity:1" fill="#79755a" d="M 661.5,597.5 C 663.436,601.715 664.103,606.381 663.5,611.5C 661.901,611.768 660.568,611.434 659.5,610.5C 660.5,610.5 661.5,610.5 662.5,610.5C 662.769,606.069 662.436,601.735 661.5,597.5 Z"/></g>
<g><path style="opacity:1" fill="#949174" d="M 592.5,597.5 C 594.167,597.5 595.833,597.5 597.5,597.5C 597.5,602.167 597.5,606.833 597.5,611.5C 595.102,611.741 593.102,611.074 591.5,609.5C 593.144,609.286 594.644,609.62 596,610.5C 596.499,606.514 596.666,602.514 596.5,598.5C 594.901,598.768 593.568,598.434 592.5,597.5 Z"/></g>
<g><path style="opacity:1" fill="#5d5c52" d="M 803.5,601.5 C 802.92,605.649 803.586,609.316 805.5,612.5C 804.791,613.404 803.791,613.737 802.5,613.5C 802.183,609.298 802.517,605.298 803.5,601.5 Z"/></g>
<g><path style="opacity:1" fill="#777356" d="M 502.5,613.5 C 499.598,612.422 496.598,611.756 493.5,611.5C 493.5,626.833 493.5,642.167 493.5,657.5C 494.5,657.5 495.5,657.5 496.5,657.5C 495.432,658.434 494.099,658.768 492.5,658.5C 492.5,642.5 492.5,626.5 492.5,610.5C 496.416,610.025 499.749,611.025 502.5,613.5 Z"/></g>
<g><path style="opacity:1" fill="#030302" d="M 502.5,613.5 C 504.514,615.183 506.18,617.183 507.5,619.5C 507.259,621.898 507.926,623.898 509.5,625.5C 509.609,632.196 509.276,638.863 508.5,645.5C 506.83,651.836 502.83,655.836 496.5,657.5C 495.5,657.5 494.5,657.5 493.5,657.5C 493.5,642.167 493.5,626.833 493.5,611.5C 496.598,611.756 499.598,612.422 502.5,613.5 Z"/></g>
<g><path style="opacity:1" fill="#7d796b" d="M 633.5,610.5 C 633.573,612.027 632.906,613.027 631.5,613.5C 631.427,611.973 632.094,610.973 633.5,610.5 Z"/></g>
<g><path style="opacity:1" fill="#7c795f" d="M 547.5,608.5 C 546.771,613.13 546.437,617.797 546.5,622.5C 545.839,620.866 545.506,619.033 545.5,617C 545.36,613.85 546.027,611.017 547.5,608.5 Z"/></g>
<g><path style="opacity:1" fill="#939074" d="M 381.5,609.5 C 380.768,618.815 380.434,628.148 380.5,637.5C 379.835,633.849 379.501,630.015 379.5,626C 379.311,620.248 379.978,614.748 381.5,609.5 Z"/></g>
<g><path style="opacity:1" fill="#5c5a48" d="M 832.5,611.5 C 833.482,614.962 833.815,618.629 833.5,622.5C 827.839,622.907 822.172,623.24 816.5,623.5C 821.568,621.822 826.902,621.156 832.5,621.5C 832.5,618.167 832.5,614.833 832.5,611.5 Z"/></g>
<g><path style="opacity:1" fill="#888570" d="M 607.5,617.5 C 607.31,620.855 606.31,623.855 604.5,626.5C 604.528,623.084 605.528,620.084 607.5,617.5 Z"/></g>
<g><path style="opacity:1" fill="#727163" d="M 409.5,597.5 C 406.85,611.008 405.85,624.675 406.5,638.5C 405.342,629.009 405.175,619.342 406,609.5C 406.293,605.132 407.46,601.132 409.5,597.5 Z"/></g>
<g><path style="opacity:1" fill="#84816e" d="M 507.5,619.5 C 509.074,621.102 509.741,623.102 509.5,625.5C 507.926,623.898 507.259,621.898 507.5,619.5 Z"/></g>
<g><path style="opacity:1" fill="#918f80" d="M 747.5,597.5 C 747.5,621.833 747.5,646.167 747.5,670.5C 755.5,670.5 763.5,670.5 771.5,670.5C 771.5,651.5 771.5,632.5 771.5,613.5C 774.01,613.054 776.01,613.72 777.5,615.5C 775.883,614.962 774.216,614.629 772.5,614.5C 772.5,633.5 772.5,652.5 772.5,671.5C 763.833,671.5 755.167,671.5 746.5,671.5C 746.169,646.661 746.502,621.994 747.5,597.5 Z"/></g>
<g><path style="opacity:1" fill="#9f9c88" d="M 429.5,605.5 C 431,611.26 431.667,617.26 431.5,623.5C 431.667,629.74 431,635.74 429.5,641.5C 430.798,629.498 430.798,617.498 429.5,605.5 Z"/></g>
<g><path style="opacity:1" fill="#6e6d60" d="M 534.5,615.5 C 535.979,619.909 536.646,624.576 536.5,629.5C 536.498,632.686 536.165,635.686 535.5,638.5C 535.477,630.817 535.143,623.15 534.5,615.5 Z"/></g>
<g><path style="opacity:1" fill="#b9b591" d="M 855.5,605.5 C 856.268,606.263 856.768,607.263 857,608.5C 857.5,629.497 857.667,650.497 857.5,671.5C 849.316,671.826 841.316,671.492 833.5,670.5C 841.167,670.5 848.833,670.5 856.5,670.5C 856.789,648.807 856.456,627.14 855.5,605.5 Z"/></g>
<g><path style="opacity:1" fill="#a9a486" d="M 509.5,625.5 C 510.164,628.146 510.498,630.979 510.5,634C 510.714,638.133 510.048,641.966 508.5,645.5C 509.276,638.863 509.609,632.196 509.5,625.5 Z"/></g>
<g><path style="opacity:1" fill="#69664d" d="M 604.5,626.5 C 604.317,633.868 604.65,641.201 605.5,648.5C 604.732,647.737 604.232,646.737 604,645.5C 603.18,638.986 603.347,632.653 604.5,626.5 Z"/></g>
<g><path style="opacity:1" fill="#0a0907" d="M 830.5,635.5 C 832.459,641.75 833.126,648.416 832.5,655.5C 830.5,655.5 828.5,655.5 826.5,655.5C 824.376,654.969 822.876,653.635 822,651.5C 820.781,646.055 821.948,641.222 825.5,637C 827.025,635.991 828.692,635.491 830.5,635.5 Z"/></g>
<g><path style="opacity:1" fill="#4e4d42" d="M 830.5,635.5 C 831.209,634.596 832.209,634.263 833.5,634.5C 833.5,641.833 833.5,649.167 833.5,656.5C 830.941,656.802 828.607,656.468 826.5,655.5C 828.5,655.5 830.5,655.5 832.5,655.5C 833.126,648.416 832.459,641.75 830.5,635.5 Z"/></g>
<g><path style="opacity:1" fill="#817e66" d="M 382.5,647.5 C 384.104,648.287 384.771,649.62 384.5,651.5C 383.326,650.486 382.66,649.153 382.5,647.5 Z"/></g>
<g><path style="opacity:1" fill="#6e6d5c" d="M 533.5,647.5 C 533.573,649.027 532.906,650.027 531.5,650.5C 531.427,648.973 532.094,647.973 533.5,647.5 Z"/></g>
<g><path style="opacity:1" fill="#f7f2cc" d="M 875.5,648.5 C 880.511,648.334 885.511,648.501 890.5,649C 897.198,652.464 899.365,657.964 897,665.5C 893.893,670.938 889.226,673.271 883,672.5C 870.494,672.295 865.827,665.962 869,653.5C 870.805,651.174 872.972,649.508 875.5,648.5 Z"/></g>
<g><path style="opacity:1" fill="#7f7e72" d="M 657.5,655.5 C 658.919,654.549 660.585,654.216 662.5,654.5C 662.5,655.833 662.5,657.167 662.5,658.5C 661.596,657.791 661.263,656.791 661.5,655.5C 660.167,655.5 658.833,655.5 657.5,655.5 Z"/></g>
<g><path style="opacity:1" fill="#494638" d="M 555.5,657.5 C 560.147,658.296 564.814,658.963 569.5,659.5C 564.669,660.538 560.003,659.871 555.5,657.5 Z"/></g>
<g><path style="opacity:1" fill="#a6a285" d="M 548.5,654.5 C 546.57,658.373 545.903,662.706 546.5,667.5C 547.791,667.263 548.791,667.596 549.5,668.5C 548.167,668.5 546.833,668.5 545.5,668.5C 545.5,663.5 545.5,658.5 545.5,653.5C 546.791,653.263 547.791,653.596 548.5,654.5 Z"/></g>
<g><path style="opacity:1" fill="#7d7a5f" d="M 662.5,659.5 C 663.156,660.622 663.489,661.955 663.5,663.5C 663.415,665.333 662.748,666.666 661.5,667.5C 662.388,664.946 662.721,662.279 662.5,659.5 Z"/></g>
<g><path style="opacity:1" fill="#9c9a81" d="M 706.5,667.5 C 704.819,669.008 702.819,670.008 700.5,670.5C 701.911,668.461 703.911,667.461 706.5,667.5 Z"/></g>
<g><path style="opacity:1" fill="#adaa8e" d="M 621.5,669.5 C 623.898,669.259 625.898,669.926 627.5,671.5C 625.102,671.741 623.102,671.074 621.5,669.5 Z"/></g>
<g><path style="opacity:1" fill="#aaa686" d="M 682.5,669.5 C 688.13,670.292 693.797,670.625 699.5,670.5C 697.359,671.163 695.025,671.497 692.5,671.5C 688.859,671.685 685.526,671.019 682.5,669.5 Z"/></g>
<g><path style="opacity:1" fill="#a8a593" d="M 558.5,670.5 C 565.153,671.054 571.82,671.388 578.5,671.5C 576.19,672.164 573.69,672.497 571,672.5C 566.573,672.606 562.406,671.94 558.5,670.5 Z"/></g>
<g><path style="opacity:1" fill="#a7a385" d="M 403.5,670.5 C 411.076,672.065 418.742,672.732 426.5,672.5C 421.015,673.652 415.349,673.818 409.5,673C 407.277,672.434 405.277,671.6 403.5,670.5 Z"/></g>
</svg>
